<svg xmlns="http://www.w3.org/2000/svg" width="355.71240234375" height="364.394287109375" viewBox="-99.39949035644531 -105.73529815673828 355.71240234375 364.394287109375"><title>Neo4j Graph Visualization</title><desc>Created using Neo4j (http://www.neo4j.com/)</desc><g class="layer relationships"><g class="relationship" transform="translate(84.51158522160794 229.65900845638475) rotate(264.98096268855386)"><path class="outline" fill="#A5ABB6" stroke="none" d="M 25 0.5 L 45.81874534753946 0.5 L 45.81874534753946 -0.5 L 25 -0.5 Z M 105.91249534753946 0.5 L 126.73124069507892 0.5 L 126.73124069507892 3.5 L 133.73124069507892 0 L 126.73124069507892 -3.5 L 126.73124069507892 -0.5 L 105.91249534753946 -0.5 Z"/><text text-anchor="middle" pointer-events="none" font-size="8px" fill="#000000" x="75.86562034753946" y="3" transform="rotate(180 75.86562034753946 0)" font-family="sans-serif">BELONGS_TO</text></g><g class="relationship" transform="translate(131.1267679487248 191.56919701856202) rotate(243.2497916422356)"><path class="outline" fill="#A5ABB6" stroke="none" d="M 25 0.5 L 33.66244974858914 0.5 L 33.66244974858914 -0.5 L 25 -0.5 Z M 93.75619974858914 0.5 L 102.41864949717828 0.5 L 102.41864949717828 3.5 L 109.41864949717828 0 L 102.41864949717828 -3.5 L 102.41864949717828 -0.5 L 93.75619974858914 -0.5 Z"/><text text-anchor="middle" pointer-events="none" font-size="8px" fill="#000000" x="63.70932474858914" y="3" transform="rotate(180 63.70932474858914 0)" font-family="sans-serif">BELONGS_TO</text></g><g class="relationship" transform="translate(190.36486332102217 182.13424184965183) rotate(222.72707565405267)"><path class="outline" fill="#A5ABB6" stroke="none" d="M 25 0.5 L 47.95402858959861 0.5 L 47.95402858959861 -0.5 L 25 -0.5 Z M 108.04777858959861 0.5 L 131.00180717919721 0.5 L 131.00180717919721 3.5 L 138.00180717919721 0 L 131.00180717919721 -3.5 L 131.00180717919721 -0.5 L 108.04777858959861 -0.5 Z"/><text text-anchor="middle" pointer-events="none" font-size="8px" fill="#000000" x="78.00090358959861" y="3" transform="rotate(180 78.00090358959861 0)" font-family="sans-serif">BELONGS_TO</text></g><g class="relationship" transform="translate(173.42029895880648 124.64759480632401) rotate(207.32395529295025)"><path class="outline" fill="#A5ABB6" stroke="none" d="M 25 0.5 L 25.788233645379144 0.5 L 25.788233645379144 -0.5 L 25 -0.5 Z M 82.91713989537914 0.5 L 83.70537354075829 0.5 L 83.70537354075829 3.5 L 90.70537354075829 0 L 83.70537354075829 -3.5 L 83.70537354075829 -0.5 L 82.91713989537914 -0.5 Z"/><text text-anchor="middle" pointer-events="none" font-size="8px" fill="#000000" x="54.352686770379144" y="3" transform="rotate(180 54.352686770379144 0)" font-family="sans-serif">BELONGS_…</text></g><g class="relationship" transform="translate(227.31294295682943 98.2908681023951) rotate(189.68979016861323)"><path class="outline" fill="#A5ABB6" stroke="none" d="M 25 0.5 L 45.931117623485136 0.5 L 45.931117623485136 -0.5 L 25 -0.5 Z M 106.02486762348514 0.5 L 126.95598524697027 0.5 L 126.95598524697027 3.5 L 133.95598524697027 0 L 126.95598524697027 -3.5 L 126.95598524697027 -0.5 L 106.02486762348514 -0.5 Z"/><text text-anchor="middle" pointer-events="none" font-size="8px" fill="#000000" x="75.97799262348514" y="3" transform="rotate(180 75.97799262348514 0)" font-family="sans-serif">BELONGS_TO</text></g><g class="relationship" transform="translate(197.42054760314298 46.259634176622555) rotate(528.7258782079604)"><path class="outline" fill="#A5ABB6" stroke="none" d="M 25 0.5 L 31.098503388773494 0.5 L 31.098503388773494 -0.5 L 25 -0.5 Z M 91.1922533887735 0.5 L 97.29075677754699 0.5 L 97.29075677754699 3.5 L 104.29075677754699 0 L 97.29075677754699 -3.5 L 97.29075677754699 -0.5 L 91.1922533887735 -0.5 Z"/><text text-anchor="middle" pointer-events="none" font-size="8px" fill="#000000" x="61.145378388773494" y="3" transform="rotate(180 61.145378388773494 0)" font-family="sans-serif">BELONGS_TO</text></g><g class="relationship" transform="translate(205.49011990998784 -13.121463245977413) rotate(507.8826432540051)"><path class="outline" fill="#A5ABB6" stroke="none" d="M 25 0.5 L 46.07038496039276 0.5 L 46.07038496039276 -0.5 L 25 -0.5 Z M 106.16413496039276 0.5 L 127.23451992078552 0.5 L 127.23451992078552 3.5 L 134.23451992078552 0 L 127.23451992078552 -3.5 L 127.23451992078552 -0.5 L 106.16413496039276 -0.5 Z"/><text text-anchor="middle" pointer-events="none" font-size="8px" fill="#000000" x="76.11725996039276" y="3" transform="rotate(180 76.11725996039276 0)" font-family="sans-serif">BELONGS_TO</text></g><g class="relationship" transform="translate(149.15202552207114 -33.615360780697614) rotate(486.75237155757935)"><path class="outline" fill="#A5ABB6" stroke="none" d="M 25 0.5 L 32.07216032949087 0.5 L 32.07216032949087 -0.5 L 25 -0.5 Z M 92.16591032949087 0.5 L 99.23807065898174 0.5 L 99.23807065898174 3.5 L 106.23807065898174 0 L 99.23807065898174 -3.5 L 99.23807065898174 -0.5 L 92.16591032949087 -0.5 Z"/><text text-anchor="middle" pointer-events="none" font-size="8px" fill="#000000" x="62.11903532949087" y="3" transform="rotate(180 62.11903532949087 0)" font-family="sans-serif">BELONGS_TO</text></g><g class="relationship" transform="translate(107.46115624487018 -76.73529510239021) rotate(463.95202747469875)"><path class="outline" fill="#A5ABB6" stroke="none" d="M 25 0.5 L 42.84261646355391 0.5 L 42.84261646355391 -0.5 L 25 -0.5 Z M 102.93636646355391 0.5 L 120.77898292710782 0.5 L 120.77898292710782 3.5 L 127.77898292710782 0 L 120.77898292710782 -3.5 L 120.77898292710782 -0.5 L 102.93636646355391 -0.5 Z"/><text text-anchor="middle" pointer-events="none" font-size="8px" fill="#000000" x="72.88949146355391" y="3" transform="rotate(180 72.88949146355391 0)" font-family="sans-serif">BELONGS_TO</text></g><g class="relationship" transform="translate(51.25398376425665 -55.92017790390659) rotate(441.3583730942296)"><path class="outline" fill="#A5ABB6" stroke="none" d="M 25 0.5 L 30.91319498543976 0.5 L 30.91319498543976 -0.5 L 25 -0.5 Z M 91.00694498543976 0.5 L 96.92013997087952 0.5 L 96.92013997087952 3.5 L 103.92013997087952 0 L 96.92013997087952 -3.5 L 96.92013997087952 -0.5 L 91.00694498543976 -0.5 Z"/><text text-anchor="middle" pointer-events="none" font-size="8px" fill="#000000" x="60.96006998543976" y="3" font-family="sans-serif">BELONGS_TO</text></g><g class="relationship" transform="translate(-8.701246772369426 -54.92897551621829) rotate(417.90182810382566)"><path class="outline" fill="#A5ABB6" stroke="none" d="M 25 0.5 L 41.09576774379066 0.5 L 41.09576774379066 -0.5 L 25 -0.5 Z M 101.18951774379066 0.5 L 117.28528548758132 0.5 L 117.28528548758132 3.5 L 124.28528548758132 0 L 117.28528548758132 -3.5 L 117.28528548758132 -0.5 L 101.18951774379066 -0.5 Z"/><text text-anchor="middle" pointer-events="none" font-size="8px" fill="#000000" x="71.14264274379066" y="3" font-family="sans-serif">BELONGS_TO</text></g><g class="relationship" transform="translate(-70.39949136581369 47.765563992342074) rotate(369.56775507924175)"><path class="outline" fill="#A5ABB6" stroke="none" d="M 25 0.5 L 37.9599023320354 0.5 L 37.9599023320354 -0.5 L 25 -0.5 Z M 98.0536523320354 0.5 L 111.0135546640708 0.5 L 111.0135546640708 3.5 L 118.0135546640708 0 L 111.0135546640708 -3.5 L 111.0135546640708 -0.5 L 98.0536523320354 -0.5 Z"/><text text-anchor="middle" pointer-events="none" font-size="8px" fill="#000000" x="68.0067773320354" y="3" font-family="sans-serif">BELONGS_TO</text></g><g class="relationship" transform="translate(-41.6479563454799 -4.856846022858021) rotate(394.2323893118081)"><path class="outline" fill="#A5ABB6" stroke="none" d="M 25 0.5 L 34.3520902679893 0.5 L 34.3520902679893 -0.5 L 25 -0.5 Z M 94.4458402679893 0.5 L 103.7979305359786 0.5 L 103.7979305359786 3.5 L 110.7979305359786 0 L 103.7979305359786 -3.5 L 103.7979305359786 -0.5 L 94.4458402679893 -0.5 Z"/><text text-anchor="middle" pointer-events="none" font-size="8px" fill="#000000" x="64.3989652679893" y="3" font-family="sans-serif">BELONGS_TO</text></g><g class="relationship" transform="translate(-68.17458220501432 107.66520461658895) rotate(345.40993350705594)"><path class="outline" fill="#A5ABB6" stroke="none" d="M 25 0.5 L 38.165281644933614 0.5 L 38.165281644933614 -0.5 L 25 -0.5 Z M 98.25903164493361 0.5 L 111.42431328986723 0.5 L 111.42431328986723 3.5 L 118.42431328986723 0 L 111.42431328986723 -3.5 L 111.42431328986723 -0.5 L 98.25903164493361 -0.5 Z"/><text text-anchor="middle" pointer-events="none" font-size="8px" fill="#000000" x="68.21215664493361" y="3" font-family="sans-serif">BELONGS_TO</text></g><g class="relationship" transform="translate(-38.75844616806482 159.92321492065483) rotate(321.0601301742842)"><path class="outline" fill="#A5ABB6" stroke="none" d="M 25 0.5 L 36.768316067165514 0.5 L 36.768316067165514 -0.5 L 25 -0.5 Z M 96.86206606716551 0.5 L 108.63038213433103 0.5 L 108.63038213433103 3.5 L 115.63038213433103 0 L 108.63038213433103 -3.5 L 108.63038213433103 -0.5 L 96.86206606716551 -0.5 Z"/><text text-anchor="middle" pointer-events="none" font-size="8px" fill="#000000" x="66.81519106716551" y="3" font-family="sans-serif">BELONGS_TO</text></g><g class="relationship" transform="translate(-6.3382031559627166 210.44896117367924) rotate(298.988140447425)"><path class="outline" fill="#A5ABB6" stroke="none" d="M 25 0.5 L 45.85714094794308 0.5 L 45.85714094794308 -0.5 L 25 -0.5 Z M 105.95089094794308 0.5 L 126.80803189588616 0.5 L 126.80803189588616 3.5 L 133.80803189588616 0 L 126.80803189588616 -3.5 L 126.80803189588616 -0.5 L 105.95089094794308 -0.5 Z"/><text text-anchor="middle" pointer-events="none" font-size="8px" fill="#000000" x="75.90401594794308" y="3" font-family="sans-serif">BELONGS_TO</text></g><g class="relationship" transform="translate(46.90001400233037 182.93593408865513) rotate(282.0226292655183)"><path class="outline" fill="#A5ABB6" stroke="none" d="M 25 0.5 L 27.109077902678493 0.5 L 27.109077902678493 -0.5 L 25 -0.5 Z M 79.7887654026785 0.5 L 81.89784330535699 0.5 L 81.89784330535699 3.5 L 88.89784330535699 0 L 81.89784330535699 -3.5 L 81.89784330535699 -0.5 L 79.7887654026785 -0.5 Z"/><text text-anchor="middle" pointer-events="none" font-size="8px" fill="#000000" x="53.44892165267849" y="3" font-family="sans-serif">BELONGS…</text></g></g><g class="layer nodes"><g class="node" transform="translate(70.62470686051495,71.53639343252648)"><circle class="outline" cx="0" cy="0" r="25" fill="#F16667" stroke="#eb2728" stroke-width="2px"/><text text-anchor="middle" pointer-events="none" font-family="sans-serif" dy="1.5625" font-size="25" fill="#FFFFFF"/><text text-anchor="middle" pointer-events="none" x="0" y="5" font-size="10px" fill="#FFFFFF" font-family="sans-serif"> 537808</text></g><g class="node" transform="translate(84.51158522160794,229.65900845638475)"><circle class="outline" cx="0" cy="0" r="25" fill="#D9C8AE" stroke="#c0a378" stroke-width="2px"/><text text-anchor="middle" pointer-events="none" font-family="sans-serif" dy="1.5625" font-size="25" fill="#2A2C34"/><text text-anchor="middle" pointer-events="none" font-family="sans-serif" dy="1.5625" font-size="25" fill="#2A2C34"/><text text-anchor="middle" pointer-events="none" font-family="sans-serif" dy="1.5625" font-size="25" fill="#2A2C34"/><text text-anchor="middle" pointer-events="none" font-family="sans-serif" dy="1.5625" font-size="25" fill="#2A2C34"/><text text-anchor="middle" pointer-events="none" x="0" y="-10" font-size="10px" fill="#2A2C34" font-family="sans-serif"> FELT</text><text text-anchor="middle" pointer-events="none" x="0" y="0" font-size="10px" fill="#2A2C34" font-family="sans-serif"> EGG</text><text text-anchor="middle" pointer-events="none" x="0" y="10" font-size="10px" fill="#2A2C34" font-family="sans-serif"> COSY</text><text text-anchor="middle" pointer-events="none" x="0" y="20" font-size="10px" fill="#2A2C34" font-family="sans-serif"> CHI…</text></g><g class="node" transform="translate(131.1267679487248,191.56919701856202)"><circle class="outline" cx="0" cy="0" r="25" fill="#D9C8AE" stroke="#c0a378" stroke-width="2px"/><text text-anchor="middle" pointer-events="none" font-family="sans-serif" dy="1.5625" font-size="25" fill="#2A2C34"/><text text-anchor="middle" pointer-events="none" font-family="sans-serif" dy="1.5625" font-size="25" fill="#2A2C34"/><text text-anchor="middle" pointer-events="none" font-family="sans-serif" dy="1.5625" font-size="25" fill="#2A2C34"/><text text-anchor="middle" pointer-events="none" font-family="sans-serif" dy="1.5625" font-size="25" fill="#2A2C34"/><text text-anchor="middle" pointer-events="none" x="0" y="-10" font-size="10px" fill="#2A2C34" font-family="sans-serif"> TEA</text><text text-anchor="middle" pointer-events="none" x="0" y="0" font-size="10px" fill="#2A2C34" font-family="sans-serif"> TIME</text><text text-anchor="middle" pointer-events="none" x="0" y="10" font-size="10px" fill="#2A2C34" font-family="sans-serif"> DES TEA</text><text text-anchor="middle" pointer-events="none" x="0" y="20" font-size="10px" fill="#2A2C34" font-family="sans-serif"> CO…</text></g><g class="node" transform="translate(190.36486332102217,182.13424184965183)"><circle class="outline" cx="0" cy="0" r="25" fill="#D9C8AE" stroke="#c0a378" stroke-width="2px"/><text text-anchor="middle" pointer-events="none" font-family="sans-serif" dy="1.5625" font-size="25" fill="#2A2C34"/><text text-anchor="middle" pointer-events="none" font-family="sans-serif" dy="1.5625" font-size="25" fill="#2A2C34"/><text text-anchor="middle" pointer-events="none" font-family="sans-serif" dy="1.5625" font-size="25" fill="#2A2C34"/><text text-anchor="middle" pointer-events="none" x="0" y="-5" font-size="10px" fill="#2A2C34" font-family="sans-serif"> PAPER</text><text text-anchor="middle" pointer-events="none" x="0" y="5" font-size="10px" fill="#2A2C34" font-family="sans-serif"> CHAIN</text><text text-anchor="middle" pointer-events="none" x="0" y="15" font-size="10px" fill="#2A2C34" font-family="sans-serif"> KIT R…</text></g><g class="node" transform="translate(173.42029895880648,124.64759480632401)"><circle class="outline" cx="0" cy="0" r="25" fill="#D9C8AE" stroke="#c0a378" stroke-width="2px"/><text text-anchor="middle" pointer-events="none" font-family="sans-serif" dy="1.5625" font-size="25" fill="#2A2C34"/><text text-anchor="middle" pointer-events="none" font-family="sans-serif" dy="1.5625" font-size="25" fill="#2A2C34"/><text text-anchor="middle" pointer-events="none" font-family="sans-serif" dy="1.5625" font-size="25" fill="#2A2C34"/><text text-anchor="middle" pointer-events="none" font-family="sans-serif" dy="1.5625" font-size="25" fill="#2A2C34"/><text text-anchor="middle" pointer-events="none" x="0" y="-10" font-size="10px" fill="#2A2C34" font-family="sans-serif"> 3D</text><text text-anchor="middle" pointer-events="none" x="0" y="0" font-size="10px" fill="#2A2C34" font-family="sans-serif"> SHEET</text><text text-anchor="middle" pointer-events="none" x="0" y="10" font-size="10px" fill="#2A2C34" font-family="sans-serif"> OF CAT</text><text text-anchor="middle" pointer-events="none" x="0" y="20" font-size="10px" fill="#2A2C34" font-family="sans-serif"> STI…</text></g><g class="node" transform="translate(227.31294295682943,98.2908681023951)"><circle class="outline" cx="0" cy="0" r="25" fill="#D9C8AE" stroke="#c0a378" stroke-width="2px"/><text text-anchor="middle" pointer-events="none" font-family="sans-serif" dy="1.5625" font-size="25" fill="#2A2C34"/><text text-anchor="middle" pointer-events="none" font-family="sans-serif" dy="1.5625" font-size="25" fill="#2A2C34"/><text text-anchor="middle" pointer-events="none" x="0" y="0" font-size="10px" fill="#2A2C34" font-family="sans-serif"> PINK</text><text text-anchor="middle" pointer-events="none" x="0" y="10" font-size="10px" fill="#2A2C34" font-family="sans-serif"> POLKA…</text></g><g class="node" transform="translate(197.42054760314298,46.259634176622555)"><circle class="outline" cx="0" cy="0" r="25" fill="#D9C8AE" stroke="#c0a378" stroke-width="2px"/><text text-anchor="middle" pointer-events="none" font-family="sans-serif" dy="1.5625" font-size="25" fill="#2A2C34"/><text text-anchor="middle" pointer-events="none" font-family="sans-serif" dy="1.5625" font-size="25" fill="#2A2C34"/><text text-anchor="middle" pointer-events="none" x="0" y="0" font-size="10px" fill="#2A2C34" font-family="sans-serif"> PINK </text><text text-anchor="middle" pointer-events="none" x="0" y="10" font-size="10px" fill="#2A2C34" font-family="sans-serif"> POLKA…</text></g><g class="node" transform="translate(205.49011990998784,-13.121463245977413)"><circle class="outline" cx="0" cy="0" r="25" fill="#D9C8AE" stroke="#c0a378" stroke-width="2px"/><text text-anchor="middle" pointer-events="none" font-family="sans-serif" dy="1.5625" font-size="25" fill="#2A2C34"/><text text-anchor="middle" pointer-events="none" x="0" y="5" font-size="10px" fill="#2A2C34" font-family="sans-serif"> VINTAGE</text></g><g class="node" transform="translate(149.15202552207114,-33.615360780697614)"><circle class="outline" cx="0" cy="0" r="25" fill="#D9C8AE" stroke="#c0a378" stroke-width="2px"/><text text-anchor="middle" pointer-events="none" font-family="sans-serif" dy="1.5625" font-size="25" fill="#2A2C34"/><text text-anchor="middle" pointer-events="none" font-family="sans-serif" dy="1.5625" font-size="25" fill="#2A2C34"/><text text-anchor="middle" pointer-events="none" font-family="sans-serif" dy="1.5625" font-size="25" fill="#2A2C34"/><text text-anchor="middle" pointer-events="none" x="0" y="-5" font-size="10px" fill="#2A2C34" font-family="sans-serif"> PAPER</text><text text-anchor="middle" pointer-events="none" x="0" y="5" font-size="10px" fill="#2A2C34" font-family="sans-serif"> BUNTING</text><text text-anchor="middle" pointer-events="none" x="0" y="15" font-size="10px" fill="#2A2C34" font-family="sans-serif"> RETR…</text></g><g class="node" transform="translate(107.46115624487018,-76.73529510239021)"><circle class="outline" cx="0" cy="0" r="25" fill="#D9C8AE" stroke="#c0a378" stroke-width="2px"/><text text-anchor="middle" pointer-events="none" font-family="sans-serif" dy="1.5625" font-size="25" fill="#2A2C34"/><text text-anchor="middle" pointer-events="none" font-family="sans-serif" dy="1.5625" font-size="25" fill="#2A2C34"/><text text-anchor="middle" pointer-events="none" font-family="sans-serif" dy="1.5625" font-size="25" fill="#2A2C34"/><text text-anchor="middle" pointer-events="none" x="0" y="-5" font-size="10px" fill="#2A2C34" font-family="sans-serif"> PINK 3</text><text text-anchor="middle" pointer-events="none" x="0" y="5" font-size="10px" fill="#2A2C34" font-family="sans-serif"> PIECE</text><text text-anchor="middle" pointer-events="none" x="0" y="15" font-size="10px" fill="#2A2C34" font-family="sans-serif"> POLK…</text></g><g class="node" transform="translate(51.25398376425665,-55.92017790390659)"><circle class="outline" cx="0" cy="0" r="25" fill="#D9C8AE" stroke="#c0a378" stroke-width="2px"/><text text-anchor="middle" pointer-events="none" font-family="sans-serif" dy="1.5625" font-size="25" fill="#2A2C34"/><text text-anchor="middle" pointer-events="none" font-family="sans-serif" dy="1.5625" font-size="25" fill="#2A2C34"/><text text-anchor="middle" pointer-events="none" font-family="sans-serif" dy="1.5625" font-size="25" fill="#2A2C34"/><text text-anchor="middle" pointer-events="none" x="0" y="-5" font-size="10px" fill="#2A2C34" font-family="sans-serif"> QUEEN</text><text text-anchor="middle" pointer-events="none" x="0" y="5" font-size="10px" fill="#2A2C34" font-family="sans-serif"> OF SKIES</text><text text-anchor="middle" pointer-events="none" x="0" y="15" font-size="10px" fill="#2A2C34" font-family="sans-serif"> LUGG…</text></g><g class="node" transform="translate(-8.701246772369426,-54.92897551621829)"><circle class="outline" cx="0" cy="0" r="25" fill="#D9C8AE" stroke="#c0a378" stroke-width="2px"/><text text-anchor="middle" pointer-events="none" font-family="sans-serif" dy="1.5625" font-size="25" fill="#2A2C34"/><text text-anchor="middle" pointer-events="none" font-family="sans-serif" dy="1.5625" font-size="25" fill="#2A2C34"/><text text-anchor="middle" pointer-events="none" font-family="sans-serif" dy="1.5625" font-size="25" fill="#2A2C34"/><text text-anchor="middle" pointer-events="none" x="0" y="-5" font-size="10px" fill="#2A2C34" font-family="sans-serif"> PAPER</text><text text-anchor="middle" pointer-events="none" x="0" y="5" font-size="10px" fill="#2A2C34" font-family="sans-serif"> BUNTING</text><text text-anchor="middle" pointer-events="none" x="0" y="15" font-size="10px" fill="#2A2C34" font-family="sans-serif"> COLO…</text></g><g class="node" transform="translate(-70.39949136581369,47.765563992342074)"><circle class="outline" cx="0" cy="0" r="25" fill="#D9C8AE" stroke="#c0a378" stroke-width="2px"/><text text-anchor="middle" pointer-events="none" font-family="sans-serif" dy="1.5625" font-size="25" fill="#2A2C34"/><text text-anchor="middle" pointer-events="none" font-family="sans-serif" dy="1.5625" font-size="25" fill="#2A2C34"/><text text-anchor="middle" pointer-events="none" x="0" y="0" font-size="10px" fill="#2A2C34" font-family="sans-serif"> PINK </text><text text-anchor="middle" pointer-events="none" x="0" y="10" font-size="10px" fill="#2A2C34" font-family="sans-serif"> POLKA…</text></g><g class="node" transform="translate(-41.6479563454799,-4.856846022858021)"><circle class="outline" cx="0" cy="0" r="25" fill="#D9C8AE" stroke="#c0a378" stroke-width="2px"/><text text-anchor="middle" pointer-events="none" font-family="sans-serif" dy="1.5625" font-size="25" fill="#2A2C34"/><text text-anchor="middle" pointer-events="none" font-family="sans-serif" dy="1.5625" font-size="25" fill="#2A2C34"/><text text-anchor="middle" pointer-events="none" font-family="sans-serif" dy="1.5625" font-size="25" fill="#2A2C34"/><text text-anchor="middle" pointer-events="none" font-family="sans-serif" dy="1.5625" font-size="25" fill="#2A2C34"/><text text-anchor="middle" pointer-events="none" x="0" y="-10" font-size="10px" fill="#2A2C34" font-family="sans-serif"> BLUE</text><text text-anchor="middle" pointer-events="none" x="0" y="0" font-size="10px" fill="#2A2C34" font-family="sans-serif"> OWL</text><text text-anchor="middle" pointer-events="none" x="0" y="10" font-size="10px" fill="#2A2C34" font-family="sans-serif"> SOFT</text><text text-anchor="middle" pointer-events="none" x="0" y="20" font-size="10px" fill="#2A2C34" font-family="sans-serif"> TOY</text></g><g class="node" transform="translate(-68.17458220501432,107.66520461658895)"><circle class="outline" cx="0" cy="0" r="25" fill="#D9C8AE" stroke="#c0a378" stroke-width="2px"/><text text-anchor="middle" pointer-events="none" font-family="sans-serif" dy="1.5625" font-size="25" fill="#2A2C34"/><text text-anchor="middle" pointer-events="none" x="0" y="5" font-size="10px" fill="#2A2C34" font-family="sans-serif"> CHRIST…</text></g><g class="node" transform="translate(-38.75844616806482,159.92321492065483)"><circle class="outline" cx="0" cy="0" r="25" fill="#D9C8AE" stroke="#c0a378" stroke-width="2px"/><text text-anchor="middle" pointer-events="none" font-family="sans-serif" dy="1.5625" font-size="25" fill="#2A2C34"/><text text-anchor="middle" pointer-events="none" font-family="sans-serif" dy="1.5625" font-size="25" fill="#2A2C34"/><text text-anchor="middle" pointer-events="none" font-family="sans-serif" dy="1.5625" font-size="25" fill="#2A2C34"/><text text-anchor="middle" pointer-events="none" x="0" y="-5" font-size="10px" fill="#2A2C34" font-family="sans-serif"> BLUE</text><text text-anchor="middle" pointer-events="none" x="0" y="5" font-size="10px" fill="#2A2C34" font-family="sans-serif"> FLOCK</text><text text-anchor="middle" pointer-events="none" x="0" y="15" font-size="10px" fill="#2A2C34" font-family="sans-serif"> CUSH…</text></g><g class="node" transform="translate(-6.3382031559627166,210.44896117367924)"><circle class="outline" cx="0" cy="0" r="25" fill="#D9C8AE" stroke="#c0a378" stroke-width="2px"/><text text-anchor="middle" pointer-events="none" font-family="sans-serif" dy="1.5625" font-size="25" fill="#2A2C34"/><text text-anchor="middle" pointer-events="none" font-family="sans-serif" dy="1.5625" font-size="25" fill="#2A2C34"/><text text-anchor="middle" pointer-events="none" font-family="sans-serif" dy="1.5625" font-size="25" fill="#2A2C34"/><text text-anchor="middle" pointer-events="none" font-family="sans-serif" dy="1.5625" font-size="25" fill="#2A2C34"/><text text-anchor="middle" pointer-events="none" x="0" y="-10" font-size="10px" fill="#2A2C34" font-family="sans-serif"> PINK</text><text text-anchor="middle" pointer-events="none" x="0" y="0" font-size="10px" fill="#2A2C34" font-family="sans-serif"> OWL</text><text text-anchor="middle" pointer-events="none" x="0" y="10" font-size="10px" fill="#2A2C34" font-family="sans-serif"> SOFT</text><text text-anchor="middle" pointer-events="none" x="0" y="20" font-size="10px" fill="#2A2C34" font-family="sans-serif"> TOY</text></g><g class="node" transform="translate(46.90001400233037,182.93593408865513)"><circle class="outline" cx="0" cy="0" r="25" fill="#D9C8AE" stroke="#c0a378" stroke-width="2px"/><text text-anchor="middle" pointer-events="none" font-family="sans-serif" dy="1.5625" font-size="25" fill="#2A2C34"/><text text-anchor="middle" pointer-events="none" x="0" y="5" font-size="10px" fill="#2A2C34" font-family="sans-serif"> PICTURE</text></g></g></svg>