<svg xmlns="http://www.w3.org/2000/svg" width="844.427978515625" height="817.26611328125" viewBox="-299.3941345214844 -299.1347961425781 844.427978515625 817.26611328125"><title>Neo4j Graph Visualization</title><desc>Created using Neo4j (http://www.neo4j.com/)</desc><g class="layer relationships"><g class="relationship" transform="translate(125.58157571555574 126.22126099074589) rotate(503.7331377927196)"><path class="outline" fill="#A5ABB6" stroke="none" d="M 25 0.5 L 75.10301759523674 0.5 L 75.10301759523674 -0.5 L 25 -0.5 Z M 135.19676759523674 0.5 L 185.29978519047347 0.5 L 185.29978519047347 3.5 L 192.29978519047347 0 L 185.29978519047347 -3.5 L 185.29978519047347 -0.5 L 135.19676759523674 -0.5 Z"/><text text-anchor="middle" pointer-events="none" font-size="8px" fill="#000000" x="105.14989259523674" y="3" transform="rotate(180 105.14989259523674 0)" font-family="sans-serif">BELONGS_TO</text></g><g class="relationship" transform="translate(-49.62084080158635 254.76428837994254) rotate(482.69712939861256)"><path class="outline" fill="#A5ABB6" stroke="none" d="M 25 0.5 L 49.96617110579837 0.5 L 49.96617110579837 -0.5 L 25 -0.5 Z M 94.20054610579837 0.5 L 119.16671721159673 0.5 L 119.16671721159673 3.5 L 126.16671721159673 0 L 119.16671721159673 -3.5 L 119.16671721159673 -0.5 L 94.20054610579837 -0.5 Z"/><text text-anchor="middle" pointer-events="none" font-size="8px" fill="#000000" x="72.08335860579837" y="3" transform="rotate(180 72.08335860579837 0)" font-family="sans-serif">MADE_BY</text></g><g class="relationship" transform="translate(125.58157571555574 126.22126099074589) rotate(384.41780969156855)"><path class="outline" fill="#A5ABB6" stroke="none" d="M 25 0.5 L 68.53766056743557 0.5 L 68.53766056743557 -0.5 L 25 -0.5 Z M 128.63141056743558 0.5 L 172.16907113487113 0.5 L 172.16907113487113 3.5 L 179.16907113487113 0 L 172.16907113487113 -3.5 L 172.16907113487113 -0.5 L 128.63141056743558 -0.5 Z"/><text text-anchor="middle" pointer-events="none" font-size="8px" fill="#000000" x="98.58453556743557" y="3" font-family="sans-serif">BELONGS_TO</text></g><g class="relationship" transform="translate(311.48878682320003 210.62219976664963) rotate(388.70077156068254)"><path class="outline" fill="#A5ABB6" stroke="none" d="M 25 0.5 L 68.08424018094634 0.5 L 68.08424018094634 -0.5 L 25 -0.5 Z M 112.31861518094634 0.5 L 155.40285536189268 0.5 L 155.40285536189268 3.5 L 162.40285536189268 0 L 155.40285536189268 -3.5 L 155.40285536189268 -0.5 L 112.31861518094634 -0.5 Z"/><text text-anchor="middle" pointer-events="none" font-size="8px" fill="#000000" x="90.20142768094634" y="3" font-family="sans-serif">MADE_BY</text></g><g class="relationship" transform="translate(125.58157571555574 126.22126099074589) rotate(423.24148181782846)"><path class="outline" fill="#A5ABB6" stroke="none" d="M 25 0.5 L 70.63211708702579 0.5 L 70.63211708702579 -0.5 L 25 -0.5 Z M 130.7258670870258 0.5 L 176.35798417405158 0.5 L 176.35798417405158 3.5 L 183.35798417405158 0 L 176.35798417405158 -3.5 L 176.35798417405158 -0.5 L 130.7258670870258 -0.5 Z"/><text text-anchor="middle" pointer-events="none" font-size="8px" fill="#000000" x="100.67899208702579" y="3" font-family="sans-serif">BELONGS_TO</text></g><g class="relationship" transform="translate(219.39084002900313 312.2666089520537) rotate(422.9316313052331)"><path class="outline" fill="#A5ABB6" stroke="none" d="M 25 0.5 L 67.48699084201489 0.5 L 67.48699084201489 -0.5 L 25 -0.5 Z M 111.72136584201489 0.5 L 154.20835668402978 0.5 L 154.20835668402978 3.5 L 161.20835668402978 0 L 154.20835668402978 -3.5 L 154.20835668402978 -0.5 L 111.72136584201489 -0.5 Z"/><text text-anchor="middle" pointer-events="none" font-size="8px" fill="#000000" x="89.60417834201489" y="3" font-family="sans-serif">MADE_BY</text></g><g class="relationship" transform="translate(125.58157571555574 126.22126099074589) rotate(185.70873593441712)"><path class="outline" fill="#A5ABB6" stroke="none" d="M 25 0.5 L 70.81820661170103 0.5 L 70.81820661170103 -0.5 L 25 -0.5 Z M 130.91195661170104 0.5 L 176.73016322340206 0.5 L 176.73016322340206 3.5 L 183.73016322340206 0 L 176.73016322340206 -3.5 L 176.73016322340206 -0.5 L 130.91195661170104 -0.5 Z"/><text text-anchor="middle" pointer-events="none" font-size="8px" fill="#000000" x="100.86508161170103" y="3" transform="rotate(180 100.86508161170103 0)" font-family="sans-serif">BELONGS_TO</text></g><g class="relationship" transform="translate(-82.1133725278539 105.45856575540978) rotate(184.2791429196244)"><path class="outline" fill="#A5ABB6" stroke="none" d="M 25 0.5 L 68.78635186834904 0.5 L 68.78635186834904 -0.5 L 25 -0.5 Z M 113.02072686834904 0.5 L 156.8070787366981 0.5 L 156.8070787366981 3.5 L 163.8070787366981 0 L 156.8070787366981 -3.5 L 156.8070787366981 -0.5 L 113.02072686834904 -0.5 Z"/><text text-anchor="middle" pointer-events="none" font-size="8px" fill="#000000" x="90.90353936834904" y="3" transform="rotate(180 90.90353936834904 0)" font-family="sans-serif">MADE_BY</text></g><g class="relationship" transform="translate(125.58157571555574 126.22126099074589) rotate(314.8364923366605)"><path class="outline" fill="#A5ABB6" stroke="none" d="M 25 0.5 L 44.96148581535357 0.5 L 44.96148581535357 -0.5 L 25 -0.5 Z M 105.05523581535357 0.5 L 125.01672163070714 0.5 L 125.01672163070714 3.5 L 132.01672163070714 0 L 125.01672163070714 -3.5 L 125.01672163070714 -0.5 L 105.05523581535357 -0.5 Z"/><text text-anchor="middle" pointer-events="none" font-size="8px" fill="#000000" x="75.00836081535357" y="3" font-family="sans-serif">BELONGS_TO</text></g><g class="relationship" transform="translate(236.29186801685498 14.877280236437244) rotate(311.52617344369725)"><path class="outline" fill="#A5ABB6" stroke="none" d="M 25 0.5 L 67.61706303719157 0.5 L 67.61706303719157 -0.5 L 25 -0.5 Z M 111.85143803719157 0.5 L 154.46850107438314 0.5 L 154.46850107438314 3.5 L 161.46850107438314 0 L 154.46850107438314 -3.5 L 154.46850107438314 -0.5 L 111.85143803719157 -0.5 Z"/><text text-anchor="middle" pointer-events="none" font-size="8px" fill="#000000" x="89.73425053719157" y="3" font-family="sans-serif">MADE_BY</text></g><g class="relationship" transform="translate(125.58157571555574 126.22126099074589) rotate(472.29170582909984)"><path class="outline" fill="#A5ABB6" stroke="none" d="M 25 0.5 L 73.23597352346472 0.5 L 73.23597352346472 -0.5 L 25 -0.5 Z M 133.32972352346474 0.5 L 181.56569704692944 0.5 L 181.56569704692944 3.5 L 188.56569704692944 0 L 181.56569704692944 -3.5 L 181.56569704692944 -0.5 L 133.32972352346474 -0.5 Z"/><text text-anchor="middle" pointer-events="none" font-size="8px" fill="#000000" x="103.28284852346472" y="3" transform="rotate(180 103.28284852346472 0)" font-family="sans-serif">BELONGS_TO</text></g><g class="relationship" transform="translate(44.57136104390372 323.8260485693714) rotate(478.0998581825665)"><path class="outline" fill="#A5ABB6" stroke="none" d="M 25 0.5 L 68.07970393918217 0.5 L 68.07970393918217 -0.5 L 25 -0.5 Z M 112.31407893918217 0.5 L 155.39378287836433 0.5 L 155.39378287836433 3.5 L 162.39378287836433 0 L 155.39378287836433 -3.5 L 155.39378287836433 -0.5 L 112.31407893918217 -0.5 Z"/><text text-anchor="middle" pointer-events="none" font-size="8px" fill="#000000" x="90.19689143918217" y="3" transform="rotate(180 90.19689143918217 0)" font-family="sans-serif">MADE_BY</text></g><g class="relationship" transform="translate(125.58157571555574 126.22126099074589) rotate(238.76480092978545)"><path class="outline" fill="#A5ABB6" stroke="none" d="M 25 0.5 L 69.10607621005352 0.5 L 69.10607621005352 -0.5 L 25 -0.5 Z M 129.19982621005352 0.5 L 173.30590242010703 0.5 L 173.30590242010703 3.5 L 180.30590242010703 0 L 173.30590242010703 -3.5 L 173.30590242010703 -0.5 L 129.19982621005352 -0.5 Z"/><text text-anchor="middle" pointer-events="none" font-size="8px" fill="#000000" x="99.15295121005352" y="3" transform="rotate(180 99.15295121005352 0)" font-family="sans-serif">BELONGS_TO</text></g><g class="relationship" transform="translate(19.119708147563667 -49.324699721740565) rotate(239.56350236462617)"><path class="outline" fill="#A5ABB6" stroke="none" d="M 25 0.5 L 70.85616523829663 0.5 L 70.85616523829663 -0.5 L 25 -0.5 Z M 115.09054023829663 0.5 L 160.94670547659325 0.5 L 160.94670547659325 3.5 L 167.94670547659325 0 L 160.94670547659325 -3.5 L 160.94670547659325 -0.5 L 115.09054023829663 -0.5 Z"/><text text-anchor="middle" pointer-events="none" font-size="8px" fill="#000000" x="92.97335273829663" y="3" transform="rotate(180 92.97335273829663 0)" font-family="sans-serif">MADE_BY</text></g><g class="relationship" transform="translate(125.58157571555574 126.22126099074589) rotate(397.3304180997857)"><path class="outline" fill="#A5ABB6" stroke="none" d="M 25 0.5 L 42.05434340820612 0.5 L 42.05434340820612 -0.5 L 25 -0.5 Z M 102.14809340820612 0.5 L 119.20243681641224 0.5 L 119.20243681641224 3.5 L 126.20243681641224 0 L 119.20243681641224 -3.5 L 119.20243681641224 -0.5 L 102.14809340820612 -0.5 Z"/><text text-anchor="middle" pointer-events="none" font-size="8px" fill="#000000" x="72.10121840820612" y="3" font-family="sans-serif">BELONGS_TO</text></g><g class="relationship" transform="translate(245.8104431295819 217.91202573595703) rotate(408.83454077000533)"><path class="outline" fill="#A5ABB6" stroke="none" d="M 25 0.5 L 67.61572858326431 0.5 L 67.61572858326431 -0.5 L 25 -0.5 Z M 111.85010358326431 0.5 L 154.46583216652863 0.5 L 154.46583216652863 3.5 L 161.46583216652863 0 L 154.46583216652863 -3.5 L 154.46583216652863 -0.5 L 111.85010358326431 -0.5 Z"/><text text-anchor="middle" pointer-events="none" font-size="8px" fill="#000000" x="89.73291608326431" y="3" font-family="sans-serif">MADE_BY</text></g><g class="relationship" transform="translate(125.58157571555574 126.22126099074589) rotate(277.7967433803883)"><path class="outline" fill="#A5ABB6" stroke="none" d="M 25 0.5 L 69.9749859429257 0.5 L 69.9749859429257 -0.5 L 25 -0.5 Z M 130.06873594292568 0.5 L 175.0437218858514 0.5 L 175.0437218858514 3.5 L 182.0437218858514 0 L 175.0437218858514 -3.5 L 175.0437218858514 -0.5 L 130.06873594292568 -0.5 Z"/><text text-anchor="middle" pointer-events="none" font-size="8px" fill="#000000" x="100.0218609429257" y="3" font-family="sans-serif">BELONGS_TO</text></g><g class="relationship" transform="translate(153.66897368202686 -78.90845613434269) rotate(290.812794213278)"><path class="outline" fill="#A5ABB6" stroke="none" d="M 25 0.5 L 43.07908611378387 0.5 L 43.07908611378387 -0.5 L 25 -0.5 Z M 87.31346111378387 0.5 L 105.39254722756775 0.5 L 105.39254722756775 3.5 L 112.39254722756775 0 L 105.39254722756775 -3.5 L 105.39254722756775 -0.5 L 87.31346111378387 -0.5 Z"/><text text-anchor="middle" pointer-events="none" font-size="8px" fill="#000000" x="65.19627361378387" y="3" font-family="sans-serif">MADE_BY</text></g><g class="relationship" transform="translate(125.58157571555574 126.22126099074589) rotate(488.3123809408489)"><path class="outline" fill="#A5ABB6" stroke="none" d="M 25 0.5 L 63.42349906511666 0.5 L 63.42349906511666 -0.5 L 25 -0.5 Z M 123.51724906511666 0.5 L 161.94074813023332 0.5 L 161.94074813023332 3.5 L 168.94074813023332 0 L 161.94074813023332 -3.5 L 161.94074813023332 -0.5 L 123.51724906511666 -0.5 Z"/><text text-anchor="middle" pointer-events="none" font-size="8px" fill="#000000" x="93.47037406511666" y="3" transform="rotate(180 93.47037406511666 0)" font-family="sans-serif">BELONGS_TO</text></g><g class="relationship" transform="translate(5.3482807738521965 278.3953999657239) rotate(502.8334674362351)"><path class="outline" fill="#A5ABB6" stroke="none" d="M 25 0.5 L 60.11002365081866 0.5 L 60.11002365081866 -0.5 L 25 -0.5 Z M 104.34439865081866 0.5 L 139.45442230163732 0.5 L 139.45442230163732 3.5 L 146.45442230163732 0 L 139.45442230163732 -3.5 L 139.45442230163732 -0.5 L 104.34439865081866 -0.5 Z"/><text text-anchor="middle" pointer-events="none" font-size="8px" fill="#000000" x="82.22721115081866" y="3" transform="rotate(180 82.22721115081866 0)" font-family="sans-serif">MADE_BY</text></g><g class="relationship" transform="translate(125.58157571555574 126.22126099074589) rotate(226.1290609292895)"><path class="outline" fill="#A5ABB6" stroke="none" d="M 25 0.5 L 45.51083760109317 0.5 L 45.51083760109317 -0.5 L 25 -0.5 Z M 105.60458760109317 0.5 L 126.11542520218634 0.5 L 126.11542520218634 3.5 L 133.11542520218634 0 L 126.11542520218634 -3.5 L 126.11542520218634 -0.5 L 105.60458760109317 -0.5 Z"/><text text-anchor="middle" pointer-events="none" font-size="8px" fill="#000000" x="75.55771260109317" y="3" transform="rotate(180 75.55771260109317 0)" font-family="sans-serif">BELONGS_TO</text></g><g class="relationship" transform="translate(16.001851336420543 12.235421116395955) rotate(225.8102811721127)"><path class="outline" fill="#A5ABB6" stroke="none" d="M 25 0.5 L 68.3658917960459 0.5 L 68.3658917960459 -0.5 L 25 -0.5 Z M 112.6002667960459 0.5 L 155.9661585920918 0.5 L 155.9661585920918 3.5 L 162.9661585920918 0 L 155.9661585920918 -3.5 L 155.9661585920918 -0.5 L 112.6002667960459 -0.5 Z"/><text text-anchor="middle" pointer-events="none" font-size="8px" fill="#000000" x="90.4830792960459" y="3" transform="rotate(180 90.4830792960459 0)" font-family="sans-serif">MADE_BY</text></g><g class="relationship" transform="translate(125.58157571555574 126.22126099074589) rotate(356.2639784034791)"><path class="outline" fill="#A5ABB6" stroke="none" d="M 25 0.5 L 68.49686101936749 0.5 L 68.49686101936749 -0.5 L 25 -0.5 Z M 128.5906110193675 0.5 L 172.08747203873497 0.5 L 172.08747203873497 3.5 L 179.08747203873497 0 L 172.08747203873497 -3.5 L 172.08747203873497 -0.5 L 128.5906110193675 -0.5 Z"/><text text-anchor="middle" pointer-events="none" font-size="8px" fill="#000000" x="98.54373601936749" y="3" font-family="sans-serif">BELONGS_TO</text></g><g class="relationship" transform="translate(329.2353312403333 112.92298652314817) rotate(357.0863071848951)"><path class="outline" fill="#A5ABB6" stroke="none" d="M 25 0.5 L 67.90296862142694 0.5 L 67.90296862142694 -0.5 L 25 -0.5 Z M 112.13734362142694 0.5 L 155.04031224285387 0.5 L 155.04031224285387 3.5 L 162.04031224285387 0 L 155.04031224285387 -3.5 L 155.04031224285387 -0.5 L 112.13734362142694 -0.5 Z"/><text text-anchor="middle" pointer-events="none" font-size="8px" fill="#000000" x="90.02015612142694" y="3" font-family="sans-serif">MADE_BY</text></g><g class="relationship" transform="translate(125.58157571555574 126.22126099074589) rotate(434.48022205298884)"><path class="outline" fill="#A5ABB6" stroke="none" d="M 25 0.5 L 46.60064875192141 0.5 L 46.60064875192141 -0.5 L 25 -0.5 Z M 106.69439875192141 0.5 L 128.29504750384282 0.5 L 128.29504750384282 3.5 L 135.29504750384282 0 L 128.29504750384282 -3.5 L 128.29504750384282 -0.5 L 106.69439875192141 -0.5 Z"/><text text-anchor="middle" pointer-events="none" font-size="8px" fill="#000000" x="76.64752375192141" y="3" font-family="sans-serif">BELONGS_TO</text></g><g class="relationship" transform="translate(168.47188123485682 280.6716541489384) rotate(445.0328207809296)"><path class="outline" fill="#A5ABB6" stroke="none" d="M 25 0.5 L 66.76562831997296 0.5 L 66.76562831997296 -0.5 L 25 -0.5 Z M 111.00000331997296 0.5 L 152.76563163994592 0.5 L 152.76563163994592 3.5 L 159.76563163994592 0 L 152.76563163994592 -3.5 L 152.76563163994592 -0.5 L 111.00000331997296 -0.5 Z"/><text text-anchor="middle" pointer-events="none" font-size="8px" fill="#000000" x="88.88281581997296" y="3" font-family="sans-serif">MADE_BY</text></g><g class="relationship" transform="translate(125.58157571555574 126.22126099074589) rotate(459.8617687649611)"><path class="outline" fill="#A5ABB6" stroke="none" d="M 25 0.5 L 51.47388423816314 0.5 L 51.47388423816314 -0.5 L 25 -0.5 Z M 111.56763423816314 0.5 L 138.04151847632627 0.5 L 138.04151847632627 3.5 L 145.04151847632627 0 L 138.04151847632627 -3.5 L 138.04151847632627 -0.5 L 111.56763423816314 -0.5 Z"/><text text-anchor="middle" pointer-events="none" font-size="8px" fill="#000000" x="81.52075923816314" y="3" transform="rotate(180 81.52075923816314 0)" font-family="sans-serif">BELONGS_TO</text></g><g class="relationship" transform="translate(96.45826946871088 293.75021681327615) rotate(458.6413754640093)"><path class="outline" fill="#A5ABB6" stroke="none" d="M 25 0.5 L 69.79526634692846 0.5 L 69.79526634692846 -0.5 L 25 -0.5 Z M 114.02964134692846 0.5 L 158.82490769385691 0.5 L 158.82490769385691 3.5 L 165.82490769385691 0 L 158.82490769385691 -3.5 L 158.82490769385691 -0.5 L 114.02964134692846 -0.5 Z"/><text text-anchor="middle" pointer-events="none" font-size="8px" fill="#000000" x="91.91245384692846" y="3" transform="rotate(180 91.91245384692846 0)" font-family="sans-serif">MADE_BY</text></g><g class="relationship" transform="translate(125.58157571555574 126.22126099074589) rotate(301.04110010102045)"><path class="outline" fill="#A5ABB6" stroke="none" d="M 25 0.5 L 70.30333892796119 0.5 L 70.30333892796119 -0.5 L 25 -0.5 Z M 130.3970889279612 0.5 L 175.70042785592238 0.5 L 175.70042785592238 3.5 L 182.70042785592238 0 L 175.70042785592238 -3.5 L 175.70042785592238 -0.5 L 130.3970889279612 -0.5 Z"/><text text-anchor="middle" pointer-events="none" font-size="8px" fill="#000000" x="100.35021392796119" y="3" font-family="sans-serif">BELONGS_TO</text></g><g class="relationship" transform="translate(232.68288621443227 -51.73597269464398) rotate(296.02741471534426)"><path class="outline" fill="#A5ABB6" stroke="none" d="M 25 0.5 L 70.17707181303317 0.5 L 70.17707181303317 -0.5 L 25 -0.5 Z M 114.41144681303317 0.5 L 159.58851862606633 0.5 L 159.58851862606633 3.5 L 166.58851862606633 0 L 159.58851862606633 -3.5 L 159.58851862606633 -0.5 L 114.41144681303317 -0.5 Z"/><text text-anchor="middle" pointer-events="none" font-size="8px" fill="#000000" x="92.29425931303317" y="3" font-family="sans-serif">MADE_BY</text></g><g class="relationship" transform="translate(125.58157571555574 126.22126099074589) rotate(289.00753753667226)"><path class="outline" fill="#A5ABB6" stroke="none" d="M 25 0.5 L 45.92338279410775 0.5 L 45.92338279410775 -0.5 L 25 -0.5 Z M 106.01713279410775 0.5 L 126.9405155882155 0.5 L 126.9405155882155 3.5 L 133.9405155882155 0 L 126.9405155882155 -3.5 L 126.9405155882155 -0.5 L 106.01713279410775 -0.5 Z"/><text text-anchor="middle" pointer-events="none" font-size="8px" fill="#000000" x="75.97025779410775" y="3" font-family="sans-serif">BELONGS_TO</text></g><g class="relationship" transform="translate(177.34731581563258 -24.053140180375312) rotate(277.81006686558067)"><path class="outline" fill="#A5ABB6" stroke="none" d="M 25 0.5 L 66.88208712250254 0.5 L 66.88208712250254 -0.5 L 25 -0.5 Z M 111.11646212250254 0.5 L 152.99854924500508 0.5 L 152.99854924500508 3.5 L 159.99854924500508 0 L 152.99854924500508 -3.5 L 152.99854924500508 -0.5 L 111.11646212250254 -0.5 Z"/><text text-anchor="middle" pointer-events="none" font-size="8px" fill="#000000" x="88.99927462250254" y="3" font-family="sans-serif">MADE_BY</text></g><g class="relationship" transform="translate(125.58157571555574 126.22126099074589) rotate(406.5533249229178)"><path class="outline" fill="#A5ABB6" stroke="none" d="M 25 0.5 L 68.36863758552103 0.5 L 68.36863758552103 -0.5 L 25 -0.5 Z M 128.46238758552101 0.5 L 171.83102517104206 0.5 L 171.83102517104206 3.5 L 178.83102517104206 0 L 171.83102517104206 -3.5 L 171.83102517104206 -0.5 L 128.46238758552101 -0.5 Z"/><text text-anchor="middle" pointer-events="none" font-size="8px" fill="#000000" x="98.41551258552103" y="3" font-family="sans-serif">BELONGS_TO</text></g><g class="relationship" transform="translate(265.7519269486066 274.205582651796) rotate(399.28055934435594)"><path class="outline" fill="#A5ABB6" stroke="none" d="M 25 0.5 L 40.784413644320296 0.5 L 40.784413644320296 -0.5 L 25 -0.5 Z M 85.0187886443203 0.5 L 100.80320228864059 0.5 L 100.80320228864059 3.5 L 107.80320228864059 0 L 100.80320228864059 -3.5 L 100.80320228864059 -0.5 L 85.0187886443203 -0.5 Z"/><text text-anchor="middle" pointer-events="none" font-size="8px" fill="#000000" x="62.901601144320296" y="3" font-family="sans-serif">MADE_BY</text></g><g class="relationship" transform="translate(125.58157571555574 126.22126099074589) rotate(514.8507125955247)"><path class="outline" fill="#A5ABB6" stroke="none" d="M 25 0.5 L 51.626233525434586 0.5 L 51.626233525434586 -0.5 L 25 -0.5 Z M 111.71998352543459 0.5 L 138.34621705086917 0.5 L 138.34621705086917 3.5 L 145.34621705086917 0 L 138.34621705086917 -3.5 L 138.34621705086917 -0.5 L 111.71998352543459 -0.5 Z"/><text text-anchor="middle" pointer-events="none" font-size="8px" fill="#000000" x="81.67310852543459" y="3" transform="rotate(180 81.67310852543459 0)" font-family="sans-serif">BELONGS_TO</text></g><g class="relationship" transform="translate(-28.616425709333022 198.61470005888134) rotate(512.8745615762059)"><path class="outline" fill="#A5ABB6" stroke="none" d="M 25 0.5 L 70.19519843379605 0.5 L 70.19519843379605 -0.5 L 25 -0.5 Z M 114.42957343379605 0.5 L 159.6247718675921 0.5 L 159.6247718675921 3.5 L 166.6247718675921 0 L 159.6247718675921 -3.5 L 159.6247718675921 -0.5 L 114.42957343379605 -0.5 Z"/><text text-anchor="middle" pointer-events="none" font-size="8px" fill="#000000" x="92.31238593379605" y="3" transform="rotate(180 92.31238593379605 0)" font-family="sans-serif">MADE_BY</text></g><g class="relationship" transform="translate(125.58157571555574 126.22126099074589) rotate(254.4817271277924)"><path class="outline" fill="#A5ABB6" stroke="none" d="M 25 0.5 L 39.87702778993568 0.5 L 39.87702778993568 -0.5 L 25 -0.5 Z M 99.97077778993568 0.5 L 114.84780557987136 0.5 L 114.84780557987136 3.5 L 121.84780557987136 0 L 114.84780557987136 -3.5 L 114.84780557987136 -0.5 L 99.97077778993568 -0.5 Z"/><text text-anchor="middle" pointer-events="none" font-size="8px" fill="#000000" x="69.92390278993568" y="3" transform="rotate(180 69.92390278993568 0)" font-family="sans-serif">BELONGS_TO</text></g><g class="relationship" transform="translate(86.29307894781752 -15.27323369139756) rotate(254.4190809138122)"><path class="outline" fill="#A5ABB6" stroke="none" d="M 25 0.5 L 67.51264553130089 0.5 L 67.51264553130089 -0.5 L 25 -0.5 Z M 111.74702053130089 0.5 L 154.25966606260178 0.5 L 154.25966606260178 3.5 L 161.25966606260178 0 L 154.25966606260178 -3.5 L 154.25966606260178 -0.5 L 111.74702053130089 -0.5 Z"/><text text-anchor="middle" pointer-events="none" font-size="8px" fill="#000000" x="89.62983303130089" y="3" transform="rotate(180 89.62983303130089 0)" font-family="sans-serif">MADE_BY</text></g><g class="relationship" transform="translate(125.58157571555574 126.22126099074589) rotate(529.1461053514728)"><path class="outline" fill="#A5ABB6" stroke="none" d="M 25 0.5 L 70.36188676380519 0.5 L 70.36188676380519 -0.5 L 25 -0.5 Z M 130.4556367638052 0.5 L 175.81752352761038 0.5 L 175.81752352761038 3.5 L 182.81752352761038 0 L 175.81752352761038 -3.5 L 175.81752352761038 -0.5 L 130.4556367638052 -0.5 Z"/><text text-anchor="middle" pointer-events="none" font-size="8px" fill="#000000" x="100.40876176380519" y="3" transform="rotate(180 100.40876176380519 0)" font-family="sans-serif">BELONGS_TO</text></g><g class="relationship" transform="translate(-78.51820827940129 165.3543832577051) rotate(528.3614274255532)"><path class="outline" fill="#A5ABB6" stroke="none" d="M 25 0.5 L 68.70976315213088 0.5 L 68.70976315213088 -0.5 L 25 -0.5 Z M 112.94413815213088 0.5 L 156.65390130426175 0.5 L 156.65390130426175 3.5 L 163.65390130426175 0 L 156.65390130426175 -3.5 L 156.65390130426175 -0.5 L 112.94413815213088 -0.5 Z"/><text text-anchor="middle" pointer-events="none" font-size="8px" fill="#000000" x="90.82695065213088" y="3" transform="rotate(180 90.82695065213088 0)" font-family="sans-serif">MADE_BY</text></g><g class="relationship" transform="translate(125.58157571555574 126.22126099074589) rotate(214.22540916761676)"><path class="outline" fill="#A5ABB6" stroke="none" d="M 25 0.5 L 70.75087956993409 0.5 L 70.75087956993409 -0.5 L 25 -0.5 Z M 130.84462956993409 0.5 L 176.59550913986817 0.5 L 176.59550913986817 3.5 L 183.59550913986817 0 L 176.59550913986817 -3.5 L 176.59550913986817 -0.5 L 130.84462956993409 -0.5 Z"/><text text-anchor="middle" pointer-events="none" font-size="8px" fill="#000000" x="100.79775456993409" y="3" transform="rotate(180 100.79775456993409 0)" font-family="sans-serif">BELONGS_TO</text></g><g class="relationship" transform="translate(-46.89170438437452 8.896693721602215) rotate(212.31834895061417)"><path class="outline" fill="#A5ABB6" stroke="none" d="M 25 0.5 L 71.43165941176817 0.5 L 71.43165941176817 -0.5 L 25 -0.5 Z M 115.66603441176817 0.5 L 162.09769382353633 0.5 L 162.09769382353633 3.5 L 169.09769382353633 0 L 162.09769382353633 -3.5 L 162.09769382353633 -0.5 L 115.66603441176817 -0.5 Z"/><text text-anchor="middle" pointer-events="none" font-size="8px" fill="#000000" x="93.54884691176817" y="3" transform="rotate(180 93.54884691176817 0)" font-family="sans-serif">MADE_BY</text></g><g class="relationship" transform="translate(125.58157571555574 126.22126099074589) rotate(199.93993003863648)"><path class="outline" fill="#A5ABB6" stroke="none" d="M 25 0.5 L 52.107132018157685 0.5 L 52.107132018157685 -0.5 L 25 -0.5 Z M 112.20088201815769 0.5 L 139.30801403631537 0.5 L 139.30801403631537 3.5 L 146.30801403631537 0 L 139.30801403631537 -3.5 L 139.30801403631537 -0.5 L 112.20088201815769 -0.5 Z"/><text text-anchor="middle" pointer-events="none" font-size="8px" fill="#000000" x="82.15400701815769" y="3" transform="rotate(180 82.15400701815769 0)" font-family="sans-serif">BELONGS_TO</text></g><g class="relationship" transform="translate(-35.45664014924637 67.79927280010125) rotate(198.01802420608277)"><path class="outline" fill="#A5ABB6" stroke="none" d="M 25 0.5 L 67.82046706258954 0.5 L 67.82046706258954 -0.5 L 25 -0.5 Z M 112.05484206258954 0.5 L 154.8753091251791 0.5 L 154.8753091251791 3.5 L 161.8753091251791 0 L 154.8753091251791 -3.5 L 154.8753091251791 -0.5 L 112.05484206258954 -0.5 Z"/><text text-anchor="middle" pointer-events="none" font-size="8px" fill="#000000" x="89.93765456258954" y="3" transform="rotate(180 89.93765456258954 0)" font-family="sans-serif">MADE_BY</text></g><g class="relationship" transform="translate(125.58157571555574 126.22126099074589) rotate(342.04700846326887)"><path class="outline" fill="#A5ABB6" stroke="none" d="M 25 0.5 L 48.4598035173058 0.5 L 48.4598035173058 -0.5 L 25 -0.5 Z M 108.5535535173058 0.5 L 132.0133570346116 0.5 L 132.0133570346116 3.5 L 139.0133570346116 0 L 132.0133570346116 -3.5 L 132.0133570346116 -0.5 L 108.5535535173058 -0.5 Z"/><text text-anchor="middle" pointer-events="none" font-size="8px" fill="#000000" x="78.5066785173058" y="3" font-family="sans-serif">BELONGS_TO</text></g><g class="relationship" transform="translate(281.6090780997352 75.66634248109101) rotate(341.48546261261515)"><path class="outline" fill="#A5ABB6" stroke="none" d="M 25 0.5 L 67.43980413159109 0.5 L 67.43980413159109 -0.5 L 25 -0.5 Z M 111.67417913159109 0.5 L 154.11398326318218 0.5 L 154.11398326318218 3.5 L 161.11398326318218 0 L 154.11398326318218 -3.5 L 154.11398326318218 -0.5 L 111.67417913159109 -0.5 Z"/><text text-anchor="middle" pointer-events="none" font-size="8px" fill="#000000" x="89.55699163159109" y="3" font-family="sans-serif">MADE_BY</text></g><g class="relationship" transform="translate(125.58157571555574 126.22126099074589) rotate(483.6014377603929)"><path class="outline" fill="#A5ABB6" stroke="none" d="M 25 0.5 L 27.360449721989838 0.5 L 27.360449721989838 -0.5 L 25 -0.5 Z M 74.70419972198984 0.5 L 77.06464944397968 0.5 L 77.06464944397968 3.5 L 84.06464944397968 0 L 77.06464944397968 -3.5 L 77.06464944397968 -0.5 L 74.70419972198984 -0.5 Z"/><text text-anchor="middle" pointer-events="none" font-size="8px" fill="#000000" x="51.03232472198984" y="3" transform="rotate(180 51.03232472198984 0)" font-family="sans-serif">BELONG…</text></g><g class="relationship" transform="translate(65.22384084686998 217.06200955580127) rotate(241.78365995179678)"><path class="outline" fill="#A5ABB6" stroke="none" d="M 25 0.5 L 25.634133899238265 0.5 L 25.634133899238265 -0.5 L 25 -0.5 Z M 67.19663389923826 0.5 L 67.83076779847653 0.5 L 67.83076779847653 3.5 L 74.83076779847653 0 L 67.83076779847653 -3.5 L 67.83076779847653 -0.5 L 67.19663389923826 -0.5 Z"/><text text-anchor="middle" pointer-events="none" font-size="8px" fill="#000000" x="46.415383899238265" y="3" transform="rotate(180 46.415383899238265 0)" font-family="sans-serif">MADE_…</text></g><g class="relationship" transform="translate(125.58157571555574 126.22126099074589) rotate(327.2480895314388)"><path class="outline" fill="#A5ABB6" stroke="none" d="M 25 0.5 L 68.71924798916326 0.5 L 68.71924798916326 -0.5 L 25 -0.5 Z M 128.81299798916325 0.5 L 172.53224597832653 0.5 L 172.53224597832653 3.5 L 179.53224597832653 0 L 172.53224597832653 -3.5 L 172.53224597832653 -0.5 L 128.81299798916325 -0.5 Z"/><text text-anchor="middle" pointer-events="none" font-size="8px" fill="#000000" x="98.76612298916326" y="3" font-family="sans-serif">BELONGS_TO</text></g><g class="relationship" transform="translate(297.59748449626795 15.568801590674882) rotate(325.55447562490605)"><path class="outline" fill="#A5ABB6" stroke="none" d="M 25 0.5 L 69.08226288837714 0.5 L 69.08226288837714 -0.5 L 25 -0.5 Z M 113.31663788837714 0.5 L 157.3989007767543 0.5 L 157.3989007767543 3.5 L 164.3989007767543 0 L 157.3989007767543 -3.5 L 157.3989007767543 -0.5 L 113.31663788837714 -0.5 Z"/><text text-anchor="middle" pointer-events="none" font-size="8px" fill="#000000" x="91.19945038837714" y="3" font-family="sans-serif">MADE_BY</text></g><g class="relationship" transform="translate(125.58157571555574 126.22126099074589) rotate(369.54507821283653)"><path class="outline" fill="#A5ABB6" stroke="none" d="M 25 0.5 L 46.80216238531568 0.5 L 46.80216238531568 -0.5 L 25 -0.5 Z M 106.89591238531568 0.5 L 128.69807477063137 0.5 L 128.69807477063137 3.5 L 135.69807477063137 0 L 128.69807477063137 -3.5 L 128.69807477063137 -0.5 L 106.89591238531568 -0.5 Z"/><text text-anchor="middle" pointer-events="none" font-size="8px" fill="#000000" x="76.84903738531568" y="3" font-family="sans-serif">BELONGS_TO</text></g><g class="relationship" transform="translate(284.0548568155679 152.86878268384066) rotate(372.20873647452606)"><path class="outline" fill="#A5ABB6" stroke="none" d="M 25 0.5 L 66.61097980392219 0.5 L 66.61097980392219 -0.5 L 25 -0.5 Z M 110.84535480392219 0.5 L 152.45633460784438 0.5 L 152.45633460784438 3.5 L 159.45633460784438 0 L 152.45633460784438 -3.5 L 152.45633460784438 -0.5 L 110.84535480392219 -0.5 Z"/><text text-anchor="middle" pointer-events="none" font-size="8px" fill="#000000" x="88.72816730392219" y="3" font-family="sans-serif">MADE_BY</text></g><g class="relationship" transform="translate(125.58157571555574 126.22126099074589) rotate(445.73575007157046)"><path class="outline" fill="#A5ABB6" stroke="none" d="M 25 0.5 L 70.5560537182157 0.5 L 70.5560537182157 -0.5 L 25 -0.5 Z M 130.6498037182157 0.5 L 176.2058574364314 0.5 L 176.2058574364314 3.5 L 183.2058574364314 0 L 176.2058574364314 -3.5 L 176.2058574364314 -0.5 L 130.6498037182157 -0.5 Z"/><text text-anchor="middle" pointer-events="none" font-size="8px" fill="#000000" x="100.6029287182157" y="3" font-family="sans-serif">BELONGS_TO</text></g><g class="relationship" transform="translate(141.06303708761482 333.85074691368754) rotate(431.6533787902364)"><path class="outline" fill="#A5ABB6" stroke="none" d="M 25 0.5 L 43.33394334427747 0.5 L 43.33394334427747 -0.5 L 25 -0.5 Z M 87.56831834427747 0.5 L 105.90226168855494 0.5 L 105.90226168855494 3.5 L 112.90226168855494 0 L 105.90226168855494 -3.5 L 105.90226168855494 -0.5 L 87.56831834427747 -0.5 Z"/><text text-anchor="middle" pointer-events="none" font-size="8px" fill="#000000" x="65.45113084427747" y="3" font-family="sans-serif">MADE_BY</text></g><g class="relationship" transform="translate(125.58157571555574 126.22126099074589) rotate(260.6888079698367)"><path class="outline" fill="#A5ABB6" stroke="none" d="M 25 0.5 L 68.37320732699033 0.5 L 68.37320732699033 -0.5 L 25 -0.5 Z M 128.46695732699033 0.5 L 171.84016465398065 0.5 L 171.84016465398065 3.5 L 178.84016465398065 0 L 171.84016465398065 -3.5 L 171.84016465398065 -0.5 L 128.46695732699033 -0.5 Z"/><text text-anchor="middle" pointer-events="none" font-size="8px" fill="#000000" x="98.42008232699033" y="3" transform="rotate(180 98.42008232699033 0)" font-family="sans-serif">BELONGS_TO</text></g><g class="relationship" transform="translate(92.60093253229931 -74.93313220358795) rotate(265.9178835404315)"><path class="outline" fill="#A5ABB6" stroke="none" d="M 25 0.5 L 72.23188920168026 0.5 L 72.23188920168026 -0.5 L 25 -0.5 Z M 116.46626420168026 0.5 L 163.69815340336052 0.5 L 163.69815340336052 3.5 L 170.69815340336052 0 L 163.69815340336052 -3.5 L 163.69815340336052 -0.5 L 116.46626420168026 -0.5 Z"/><text text-anchor="middle" pointer-events="none" font-size="8px" fill="#000000" x="94.34907670168026" y="3" transform="rotate(180 94.34907670168026 0)" font-family="sans-serif">MADE_BY</text></g><g class="relationship" transform="translate(125.58157571555574 126.22126099074589) rotate(538.4699225434422)"><path class="outline" fill="#A5ABB6" stroke="none" d="M 25 0.5 L 25.294240605076403 0.5 L 25.294240605076403 -0.5 L 25 -0.5 Z M 75.3020531050764 0.5 L 75.5962937101528 0.5 L 75.5962937101528 3.5 L 82.5962937101528 0 L 75.5962937101528 -3.5 L 75.5962937101528 -0.5 L 75.3020531050764 -0.5 Z"/><text text-anchor="middle" pointer-events="none" font-size="8px" fill="#000000" x="50.2981468550764" y="3" transform="rotate(180 50.2981468550764 0)" font-family="sans-serif">VIEWED_…</text></g></g><g class="layer nodes"><g class="node" transform="translate(125.58157571555574,126.22126099074589)"><circle class="outline" cx="0" cy="0" r="25" fill="#D9C8AE" stroke="#c0a378" stroke-width="2px"/><text text-anchor="middle" pointer-events="none" font-family="sans-serif" dy="1.5625" font-size="25" fill="#2A2C34"/><text text-anchor="middle" pointer-events="none" x="0" y="5" font-size="10px" fill="#2A2C34" font-family="sans-serif"> ABSTR…</text></g><g class="node" transform="translate(-131.2808231251688,381.9768022276103)"><circle class="outline" cx="0" cy="0" r="25" fill="#8DCC93" stroke="#5db665" stroke-width="2px"/><text text-anchor="middle" pointer-events="none" font-family="sans-serif" dy="1.5625" font-size="25" fill="#2A2C34"/><text text-anchor="middle" pointer-events="none" x="0" y="5" font-size="10px" fill="#2A2C34" font-family="sans-serif"> 12748</text></g><g class="node" transform="translate(475.8672705556696,300.619667973287)"><circle class="outline" cx="0" cy="0" r="25" fill="#8DCC93" stroke="#5db665" stroke-width="2px"/><text text-anchor="middle" pointer-events="none" font-family="sans-serif" dy="1.5625" font-size="25" fill="#2A2C34"/><text text-anchor="middle" pointer-events="none" x="0" y="5" font-size="10px" fill="#2A2C34" font-family="sans-serif"> 14606</text></g><g class="node" transform="translate(304.12558168993587,478.0784772082851)"><circle class="outline" cx="0" cy="0" r="25" fill="#8DCC93" stroke="#5db665" stroke-width="2px"/><text text-anchor="middle" pointer-events="none" font-family="sans-serif" dy="1.5625" font-size="25" fill="#2A2C34"/><text text-anchor="middle" pointer-events="none" x="0" y="5" font-size="10px" fill="#2A2C34" font-family="sans-serif"> 17530</text></g><g class="node" transform="translate(-270.3941253949569,91.37058929026094)"><circle class="outline" cx="0" cy="0" r="25" fill="#8DCC93" stroke="#5db665" stroke-width="2px"/><text text-anchor="middle" pointer-events="none" font-family="sans-serif" dy="1.5625" font-size="25" fill="#2A2C34"/><text text-anchor="middle" pointer-events="none" x="0" y="5" font-size="10px" fill="#2A2C34" font-family="sans-serif"> 14415</text></g><g class="node" transform="translate(359.91341923666863,-124.7229130547406)"><circle class="outline" cx="0" cy="0" r="25" fill="#8DCC93" stroke="#5db665" stroke-width="2px"/><text text-anchor="middle" pointer-events="none" font-family="sans-serif" dy="1.5625" font-size="25" fill="#2A2C34"/><text text-anchor="middle" pointer-events="none" x="0" y="5" font-size="10px" fill="#2A2C34" font-family="sans-serif"> 17457</text></g><g class="node" transform="translate(-43.69292799814202,489.13135744166914)"><circle class="outline" cx="0" cy="0" r="25" fill="#8DCC93" stroke="#5db665" stroke-width="2px"/><text text-anchor="middle" pointer-events="none" font-family="sans-serif" dy="1.5625" font-size="25" fill="#2A2C34"/><text text-anchor="middle" pointer-events="none" x="0" y="5" font-size="10px" fill="#2A2C34" font-family="sans-serif"> 15326</text></g><g class="node" transform="translate(-78.6238293449532,-215.68164136446302)"><circle class="outline" cx="0" cy="0" r="25" fill="#8DCC93" stroke="#5db665" stroke-width="2px"/><text text-anchor="middle" pointer-events="none" font-family="sans-serif" dy="1.5625" font-size="25" fill="#2A2C34"/><text text-anchor="middle" pointer-events="none" x="0" y="5" font-size="10px" fill="#2A2C34" font-family="sans-serif"> 17771</text></g><g class="node" transform="translate(368.54891945618976,358.2857162715369)"><circle class="outline" cx="0" cy="0" r="25" fill="#8DCC93" stroke="#5db665" stroke-width="2px"/><text text-anchor="middle" pointer-events="none" font-family="sans-serif" dy="1.5625" font-size="25" fill="#2A2C34"/><text text-anchor="middle" pointer-events="none" x="0" y="5" font-size="10px" fill="#2A2C34" font-family="sans-serif"> 13334</text></g><g class="node" transform="translate(202.48670293966225,-207.33563917519135)"><circle class="outline" cx="0" cy="0" r="25" fill="#8DCC93" stroke="#5db665" stroke-width="2px"/><text text-anchor="middle" pointer-events="none" font-family="sans-serif" dy="1.5625" font-size="25" fill="#2A2C34"/><text text-anchor="middle" pointer-events="none" x="0" y="5" font-size="10px" fill="#2A2C34" font-family="sans-serif"> 16431</text></g><g class="node" transform="translate(-115.01741237583707,-122.54302416386875)"><circle class="outline" cx="0" cy="0" r="25" fill="#8DCC93" stroke="#5db665" stroke-width="2px"/><text text-anchor="middle" pointer-events="none" font-family="sans-serif" dy="1.5625" font-size="25" fill="#2A2C34"/><text text-anchor="middle" pointer-events="none" x="0" y="5" font-size="10px" fill="#2A2C34" font-family="sans-serif"> 17542</text></g><g class="node" transform="translate(516.0338448236237,103.41542495471423)"><circle class="outline" cx="0" cy="0" r="25" fill="#8DCC93" stroke="#5db665" stroke-width="2px"/><text text-anchor="middle" pointer-events="none" font-family="sans-serif" dy="1.5625" font-size="25" fill="#2A2C34"/><text text-anchor="middle" pointer-events="none" x="0" y="5" font-size="10px" fill="#2A2C34" font-family="sans-serif"> 16809</text></g><g class="node" transform="translate(184.46982778504835,464.74339109267834)"><circle class="outline" cx="0" cy="0" r="25" fill="#8DCC93" stroke="#5db665" stroke-width="2px"/><text text-anchor="middle" pointer-events="none" font-family="sans-serif" dy="1.5625" font-size="25" fill="#2A2C34"/><text text-anchor="middle" pointer-events="none" x="0" y="5" font-size="10px" fill="#2A2C34" font-family="sans-serif"> 17979</text></g><g class="node" transform="translate(67.78695627184115,482.40890650430526)"><circle class="outline" cx="0" cy="0" r="25" fill="#8DCC93" stroke="#5db665" stroke-width="2px"/><text text-anchor="middle" pointer-events="none" font-family="sans-serif" dy="1.5625" font-size="25" fill="#2A2C34"/><text text-anchor="middle" pointer-events="none" x="0" y="5" font-size="10px" fill="#2A2C34" font-family="sans-serif"> 17400</text></g><g class="node" transform="translate(316.7521483060374,-223.89438707135568)"><circle class="outline" cx="0" cy="0" r="25" fill="#8DCC93" stroke="#5db665" stroke-width="2px"/><text text-anchor="middle" pointer-events="none" font-family="sans-serif" dy="1.5625" font-size="25" fill="#2A2C34"/><text text-anchor="middle" pointer-events="none" x="0" y="5" font-size="10px" fill="#2A2C34" font-family="sans-serif"> 14740</text></g><g class="node" transform="translate(-199.16447747145628,285.9841182408221)"><circle class="outline" cx="0" cy="0" r="25" fill="#8DCC93" stroke="#5db665" stroke-width="2px"/><text text-anchor="middle" pointer-events="none" font-family="sans-serif" dy="1.5625" font-size="25" fill="#2A2C34"/><text text-anchor="middle" pointer-events="none" x="0" y="5" font-size="10px" fill="#2A2C34" font-family="sans-serif"> 17730</text></g><g class="node" transform="translate(36.26390982919249,-194.68824264842976)"><circle class="outline" cx="0" cy="0" r="25" fill="#8DCC93" stroke="#5db665" stroke-width="2px"/><text text-anchor="middle" pointer-events="none" font-family="sans-serif" dy="1.5625" font-size="25" fill="#2A2C34"/><text text-anchor="middle" pointer-events="none" x="0" y="5" font-size="10px" fill="#2A2C34" font-family="sans-serif"> 15839</text></g><g class="node" transform="translate(-263.29332090323436,203.41292017346075)"><circle class="outline" cx="0" cy="0" r="25" fill="#8DCC93" stroke="#5db665" stroke-width="2px"/><text text-anchor="middle" pointer-events="none" font-family="sans-serif" dy="1.5625" font-size="25" fill="#2A2C34"/><text text-anchor="middle" pointer-events="none" x="0" y="5" font-size="10px" fill="#2A2C34" font-family="sans-serif"> 17774</text></g><g class="node" transform="translate(-210.9218532905067,-94.87240089450857)"><circle class="outline" cx="0" cy="0" r="25" fill="#8DCC93" stroke="#5db665" stroke-width="2px"/><text text-anchor="middle" pointer-events="none" font-family="sans-serif" dy="1.5625" font-size="25" fill="#2A2C34"/><text text-anchor="middle" pointer-events="none" x="0" y="5" font-size="10px" fill="#2A2C34" font-family="sans-serif"> 13213</text></g><g class="node" transform="translate(-213.16744547840153,9.995719017532199)"><circle class="outline" cx="0" cy="0" r="25" fill="#8DCC93" stroke="#5db665" stroke-width="2px"/><text text-anchor="middle" pointer-events="none" font-family="sans-serif" dy="1.5625" font-size="25" fill="#2A2C34"/><text text-anchor="middle" pointer-events="none" x="0" y="5" font-size="10px" fill="#2A2C34" font-family="sans-serif"> 12449</text></g><g class="node" transform="translate(458.09038160807074,16.566729300573446)"><circle class="outline" cx="0" cy="0" r="25" fill="#8DCC93" stroke="#5db665" stroke-width="2px"/><text text-anchor="middle" pointer-events="none" font-family="sans-serif" dy="1.5625" font-size="25" fill="#2A2C34"/><text text-anchor="middle" pointer-events="none" x="0" y="5" font-size="10px" fill="#2A2C34" font-family="sans-serif"> 15036</text></g><g class="node" transform="translate(18.02364593402952,129.09426660747272)"><circle class="outline" cx="0" cy="0" r="25" fill="#8DCC93" stroke="#5db665" stroke-width="2px"/><text text-anchor="middle" pointer-events="none" font-family="sans-serif" dy="1.5625" font-size="25" fill="#2A2C34"/><text text-anchor="middle" pointer-events="none" x="0" y="5" font-size="10px" fill="#2A2C34" font-family="sans-serif"> 12757</text></g><g class="node" transform="translate(453.78800460979846,-91.55946285017025)"><circle class="outline" cx="0" cy="0" r="25" fill="#8DCC93" stroke="#5db665" stroke-width="2px"/><text text-anchor="middle" pointer-events="none" font-family="sans-serif" dy="1.5625" font-size="25" fill="#2A2C34"/><text text-anchor="middle" pointer-events="none" x="0" y="5" font-size="10px" fill="#2A2C34" font-family="sans-serif"> 16121</text></g><g class="node" transform="translate(464.33946425709064,191.8764703443147)"><circle class="outline" cx="0" cy="0" r="25" fill="#8DCC93" stroke="#5db665" stroke-width="2px"/><text text-anchor="middle" pointer-events="none" font-family="sans-serif" dy="1.5625" font-size="25" fill="#2A2C34"/><text text-anchor="middle" pointer-events="none" x="0" y="5" font-size="10px" fill="#2A2C34" font-family="sans-serif"> 14234</text></g><g class="node" transform="translate(78.66994167171758,-270.1348092945587)"><circle class="outline" cx="0" cy="0" r="25" fill="#8DCC93" stroke="#5db665" stroke-width="2px"/><text text-anchor="middle" pointer-events="none" font-family="sans-serif" dy="1.5625" font-size="25" fill="#2A2C34"/><text text-anchor="middle" pointer-events="none" x="0" y="5" font-size="10px" fill="#2A2C34" font-family="sans-serif"> 17812</text></g><g class="node" transform="translate(-49.62084080158635,254.76428837994254)"><circle class="outline" cx="0" cy="0" r="25" fill="#F16667" stroke="#eb2728" stroke-width="2px"/><text text-anchor="middle" pointer-events="none" font-family="sans-serif" dy="1.5625" font-size="25" fill="#FFFFFF"/><text text-anchor="middle" pointer-events="none" x="0" y="5" font-size="10px" fill="#FFFFFF" font-family="sans-serif"> 537225</text></g><g class="node" transform="translate(311.48878682320003,210.62219976664963)"><circle class="outline" cx="0" cy="0" r="25" fill="#F16667" stroke="#eb2728" stroke-width="2px"/><text text-anchor="middle" pointer-events="none" font-family="sans-serif" dy="1.5625" font-size="25" fill="#FFFFFF"/><text text-anchor="middle" pointer-events="none" x="0" y="5" font-size="10px" fill="#FFFFFF" font-family="sans-serif"> 537765</text></g><g class="node" transform="translate(219.39084002900313,312.2666089520537)"><circle class="outline" cx="0" cy="0" r="25" fill="#F16667" stroke="#eb2728" stroke-width="2px"/><text text-anchor="middle" pointer-events="none" font-family="sans-serif" dy="1.5625" font-size="25" fill="#FFFFFF"/><text text-anchor="middle" pointer-events="none" x="0" y="5" font-size="10px" fill="#FFFFFF" font-family="sans-serif"> 538171</text></g><g class="node" transform="translate(-82.1133725278539,105.45856575540978)"><circle class="outline" cx="0" cy="0" r="25" fill="#F16667" stroke="#eb2728" stroke-width="2px"/><text text-anchor="middle" pointer-events="none" font-family="sans-serif" dy="1.5625" font-size="25" fill="#FFFFFF"/><text text-anchor="middle" pointer-events="none" x="0" y="5" font-size="10px" fill="#FFFFFF" font-family="sans-serif"> 538849</text></g><g class="node" transform="translate(236.29186801685498,14.877280236437244)"><circle class="outline" cx="0" cy="0" r="25" fill="#F16667" stroke="#eb2728" stroke-width="2px"/><text text-anchor="middle" pointer-events="none" font-family="sans-serif" dy="1.5625" font-size="25" fill="#FFFFFF"/><text text-anchor="middle" pointer-events="none" x="0" y="5" font-size="10px" fill="#FFFFFF" font-family="sans-serif"> 540059</text></g><g class="node" transform="translate(44.57136104390372,323.8260485693714)"><circle class="outline" cx="0" cy="0" r="25" fill="#F16667" stroke="#eb2728" stroke-width="2px"/><text text-anchor="middle" pointer-events="none" font-family="sans-serif" dy="1.5625" font-size="25" fill="#FFFFFF"/><text text-anchor="middle" pointer-events="none" x="0" y="5" font-size="10px" fill="#FFFFFF" font-family="sans-serif"> 540604</text></g><g class="node" transform="translate(19.119708147563667,-49.324699721740565)"><circle class="outline" cx="0" cy="0" r="25" fill="#F16667" stroke="#eb2728" stroke-width="2px"/><text text-anchor="middle" pointer-events="none" font-family="sans-serif" dy="1.5625" font-size="25" fill="#FFFFFF"/><text text-anchor="middle" pointer-events="none" x="0" y="5" font-size="10px" fill="#FFFFFF" font-family="sans-serif"> 541678</text></g><g class="node" transform="translate(245.8104431295819,217.91202573595703)"><circle class="outline" cx="0" cy="0" r="25" fill="#F16667" stroke="#eb2728" stroke-width="2px"/><text text-anchor="middle" pointer-events="none" font-family="sans-serif" dy="1.5625" font-size="25" fill="#FFFFFF"/><text text-anchor="middle" pointer-events="none" x="0" y="5" font-size="10px" fill="#FFFFFF" font-family="sans-serif"> 543300</text></g><g class="node" transform="translate(153.66897368202686,-78.90845613434269)"><circle class="outline" cx="0" cy="0" r="25" fill="#F16667" stroke="#eb2728" stroke-width="2px"/><text text-anchor="middle" pointer-events="none" font-family="sans-serif" dy="1.5625" font-size="25" fill="#FFFFFF"/><text text-anchor="middle" pointer-events="none" x="0" y="5" font-size="10px" fill="#FFFFFF" font-family="sans-serif"> 544067</text></g><g class="node" transform="translate(5.3482807738521965,278.3953999657239)"><circle class="outline" cx="0" cy="0" r="25" fill="#F16667" stroke="#eb2728" stroke-width="2px"/><text text-anchor="middle" pointer-events="none" font-family="sans-serif" dy="1.5625" font-size="25" fill="#FFFFFF"/><text text-anchor="middle" pointer-events="none" x="0" y="5" font-size="10px" fill="#FFFFFF" font-family="sans-serif"> 545062</text></g><g class="node" transform="translate(16.001851336420543,12.235421116395955)"><circle class="outline" cx="0" cy="0" r="25" fill="#F16667" stroke="#eb2728" stroke-width="2px"/><text text-anchor="middle" pointer-events="none" font-family="sans-serif" dy="1.5625" font-size="25" fill="#FFFFFF"/><text text-anchor="middle" pointer-events="none" x="0" y="5" font-size="10px" fill="#FFFFFF" font-family="sans-serif"> 546625</text></g><g class="node" transform="translate(329.2353312403333,112.92298652314817)"><circle class="outline" cx="0" cy="0" r="25" fill="#F16667" stroke="#eb2728" stroke-width="2px"/><text text-anchor="middle" pointer-events="none" font-family="sans-serif" dy="1.5625" font-size="25" fill="#FFFFFF"/><text text-anchor="middle" pointer-events="none" x="0" y="5" font-size="10px" fill="#FFFFFF" font-family="sans-serif"> 547380</text></g><g class="node" transform="translate(168.47188123485682,280.6716541489384)"><circle class="outline" cx="0" cy="0" r="25" fill="#F16667" stroke="#eb2728" stroke-width="2px"/><text text-anchor="middle" pointer-events="none" font-family="sans-serif" dy="1.5625" font-size="25" fill="#FFFFFF"/><text text-anchor="middle" pointer-events="none" x="0" y="5" font-size="10px" fill="#FFFFFF" font-family="sans-serif"> 547772</text></g><g class="node" transform="translate(96.45826946871088,293.75021681327615)"><circle class="outline" cx="0" cy="0" r="25" fill="#F16667" stroke="#eb2728" stroke-width="2px"/><text text-anchor="middle" pointer-events="none" font-family="sans-serif" dy="1.5625" font-size="25" fill="#FFFFFF"/><text text-anchor="middle" pointer-events="none" x="0" y="5" font-size="10px" fill="#FFFFFF" font-family="sans-serif"> 548400</text></g><g class="node" transform="translate(232.68288621443227,-51.73597269464398)"><circle class="outline" cx="0" cy="0" r="25" fill="#F16667" stroke="#eb2728" stroke-width="2px"/><text text-anchor="middle" pointer-events="none" font-family="sans-serif" dy="1.5625" font-size="25" fill="#FFFFFF"/><text text-anchor="middle" pointer-events="none" x="0" y="5" font-size="10px" fill="#FFFFFF" font-family="sans-serif"> 551349</text></g><g class="node" transform="translate(177.34731581563258,-24.053140180375312)"><circle class="outline" cx="0" cy="0" r="25" fill="#F16667" stroke="#eb2728" stroke-width="2px"/><text text-anchor="middle" pointer-events="none" font-family="sans-serif" dy="1.5625" font-size="25" fill="#FFFFFF"/><text text-anchor="middle" pointer-events="none" x="0" y="5" font-size="10px" fill="#FFFFFF" font-family="sans-serif"> 552651</text></g><g class="node" transform="translate(265.7519269486066,274.205582651796)"><circle class="outline" cx="0" cy="0" r="25" fill="#F16667" stroke="#eb2728" stroke-width="2px"/><text text-anchor="middle" pointer-events="none" font-family="sans-serif" dy="1.5625" font-size="25" fill="#FFFFFF"/><text text-anchor="middle" pointer-events="none" x="0" y="5" font-size="10px" fill="#FFFFFF" font-family="sans-serif"> 555340</text></g><g class="node" transform="translate(-28.616425709333022,198.61470005888134)"><circle class="outline" cx="0" cy="0" r="25" fill="#F16667" stroke="#eb2728" stroke-width="2px"/><text text-anchor="middle" pointer-events="none" font-family="sans-serif" dy="1.5625" font-size="25" fill="#FFFFFF"/><text text-anchor="middle" pointer-events="none" x="0" y="5" font-size="10px" fill="#FFFFFF" font-family="sans-serif"> 558432</text></g><g class="node" transform="translate(86.29307894781752,-15.27323369139756)"><circle class="outline" cx="0" cy="0" r="25" fill="#F16667" stroke="#eb2728" stroke-width="2px"/><text text-anchor="middle" pointer-events="none" font-family="sans-serif" dy="1.5625" font-size="25" fill="#FFFFFF"/><text text-anchor="middle" pointer-events="none" x="0" y="5" font-size="10px" fill="#FFFFFF" font-family="sans-serif"> 560086</text></g><g class="node" transform="translate(-78.51820827940129,165.3543832577051)"><circle class="outline" cx="0" cy="0" r="25" fill="#F16667" stroke="#eb2728" stroke-width="2px"/><text text-anchor="middle" pointer-events="none" font-family="sans-serif" dy="1.5625" font-size="25" fill="#FFFFFF"/><text text-anchor="middle" pointer-events="none" x="0" y="5" font-size="10px" fill="#FFFFFF" font-family="sans-serif"> 560251</text></g><g class="node" transform="translate(-46.89170438437452,8.896693721602215)"><circle class="outline" cx="0" cy="0" r="25" fill="#F16667" stroke="#eb2728" stroke-width="2px"/><text text-anchor="middle" pointer-events="none" font-family="sans-serif" dy="1.5625" font-size="25" fill="#FFFFFF"/><text text-anchor="middle" pointer-events="none" x="0" y="5" font-size="10px" fill="#FFFFFF" font-family="sans-serif"> 562209</text></g><g class="node" transform="translate(-35.45664014924637,67.79927280010125)"><circle class="outline" cx="0" cy="0" r="25" fill="#F16667" stroke="#eb2728" stroke-width="2px"/><text text-anchor="middle" pointer-events="none" font-family="sans-serif" dy="1.5625" font-size="25" fill="#FFFFFF"/><text text-anchor="middle" pointer-events="none" x="0" y="5" font-size="10px" fill="#FFFFFF" font-family="sans-serif"> 562034</text></g><g class="node" transform="translate(281.6090780997352,75.66634248109101)"><circle class="outline" cx="0" cy="0" r="25" fill="#F16667" stroke="#eb2728" stroke-width="2px"/><text text-anchor="middle" pointer-events="none" font-family="sans-serif" dy="1.5625" font-size="25" fill="#FFFFFF"/><text text-anchor="middle" pointer-events="none" x="0" y="5" font-size="10px" fill="#FFFFFF" font-family="sans-serif"> 568709</text></g><g class="node" transform="translate(65.22384084686998,217.06200955580127)"><circle class="outline" cx="0" cy="0" r="25" fill="#F16667" stroke="#eb2728" stroke-width="2px"/><text text-anchor="middle" pointer-events="none" font-family="sans-serif" dy="1.5625" font-size="25" fill="#FFFFFF"/><text text-anchor="middle" pointer-events="none" x="0" y="5" font-size="10px" fill="#FFFFFF" font-family="sans-serif"> 569866</text></g><g class="node" transform="translate(297.59748449626795,15.568801590674882)"><circle class="outline" cx="0" cy="0" r="25" fill="#F16667" stroke="#eb2728" stroke-width="2px"/><text text-anchor="middle" pointer-events="none" font-family="sans-serif" dy="1.5625" font-size="25" fill="#FFFFFF"/><text text-anchor="middle" pointer-events="none" x="0" y="5" font-size="10px" fill="#FFFFFF" font-family="sans-serif"> 571039</text></g><g class="node" transform="translate(284.0548568155679,152.86878268384066)"><circle class="outline" cx="0" cy="0" r="25" fill="#F16667" stroke="#eb2728" stroke-width="2px"/><text text-anchor="middle" pointer-events="none" font-family="sans-serif" dy="1.5625" font-size="25" fill="#FFFFFF"/><text text-anchor="middle" pointer-events="none" x="0" y="5" font-size="10px" fill="#FFFFFF" font-family="sans-serif"> 571054</text></g><g class="node" transform="translate(141.06303708761482,333.85074691368754)"><circle class="outline" cx="0" cy="0" r="25" fill="#F16667" stroke="#eb2728" stroke-width="2px"/><text text-anchor="middle" pointer-events="none" font-family="sans-serif" dy="1.5625" font-size="25" fill="#FFFFFF"/><text text-anchor="middle" pointer-events="none" x="0" y="5" font-size="10px" fill="#FFFFFF" font-family="sans-serif"> 574474</text></g><g class="node" transform="translate(92.60093253229931,-74.93313220358795)"><circle class="outline" cx="0" cy="0" r="25" fill="#F16667" stroke="#eb2728" stroke-width="2px"/><text text-anchor="middle" pointer-events="none" font-family="sans-serif" dy="1.5625" font-size="25" fill="#FFFFFF"/><text text-anchor="middle" pointer-events="none" x="0" y="5" font-size="10px" fill="#FFFFFF" font-family="sans-serif"> 578901</text></g></g></svg>