<svg xmlns="http://www.w3.org/2000/svg" width="370.63214111328125" height="363.23480224609375" viewBox="-60.77039337158203 -117.54834747314453 370.63214111328125 363.23480224609375"><title>Neo4j Graph Visualization</title><desc>Created using Neo4j (http://www.neo4j.com/)</desc><g class="layer relationships"><g class="relationship" transform="translate(147.36207980141467 216.68645929687295) rotate(263.11127703602506)"><path class="outline" fill="#A5ABB6" stroke="none" d="M 25 0.5 L 48.50548696746988 0.5 L 48.50548696746988 -0.5 L 25 -0.5 Z M 101.18517446746988 0.5 L 124.69066143493976 0.5 L 124.69066143493976 3.5 L 131.69066143493976 0 L 124.69066143493976 -3.5 L 124.69066143493976 -0.5 L 101.18517446746988 -0.5 Z"/><text text-anchor="middle" pointer-events="none" font-size="8px" fill="#000000" x="74.84533071746988" y="3" transform="rotate(180 74.84533071746988 0)" font-family="sans-serif">VIEWED_BY</text></g><g class="relationship" transform="translate(178.76460702895324 165.57406992220356) rotate(244.33153017615723)"><path class="outline" fill="#A5ABB6" stroke="none" d="M 25 0.5 L 28.101639415138393 0.5 L 28.101639415138393 -0.5 L 25 -0.5 Z M 80.7813269151384 0.5 L 83.88296633027679 0.5 L 83.88296633027679 3.5 L 90.88296633027679 0 L 83.88296633027679 -3.5 L 83.88296633027679 -0.5 L 80.7813269151384 -0.5 Z"/><text text-anchor="middle" pointer-events="none" font-size="8px" fill="#000000" x="54.44148316513839" y="3" transform="rotate(180 54.44148316513839 0)" font-family="sans-serif">VIEWED_BY</text></g><g class="relationship" transform="translate(234.18071726710764 188.46013144148114) rotate(230.3271005982628)"><path class="outline" fill="#A5ABB6" stroke="none" d="M 25 0.5 L 52.87609334736848 0.5 L 52.87609334736848 -0.5 L 25 -0.5 Z M 105.55578084736848 0.5 L 133.43187419473696 0.5 L 133.43187419473696 3.5 L 140.43187419473696 0 L 133.43187419473696 -3.5 L 133.43187419473696 -0.5 L 105.55578084736848 -0.5 Z"/><text text-anchor="middle" pointer-events="none" font-size="8px" fill="#000000" x="79.21593709736848" y="3" transform="rotate(180 79.21593709736848 0)" font-family="sans-serif">VIEWED_BY</text></g><g class="relationship" transform="translate(245.39500960872152 126.70472510602794) rotate(209.3066099579798)"><path class="outline" fill="#A5ABB6" stroke="none" d="M 25 0.5 L 37.14692083420955 0.5 L 37.14692083420955 -0.5 L 25 -0.5 Z M 89.82660833420955 0.5 L 101.9735291684191 0.5 L 101.9735291684191 3.5 L 108.9735291684191 0 L 101.9735291684191 -3.5 L 101.9735291684191 -0.5 L 89.82660833420955 -0.5 Z"/><text text-anchor="middle" pointer-events="none" font-size="8px" fill="#000000" x="63.48676458420955" y="3" transform="rotate(180 63.48676458420955 0)" font-family="sans-serif">VIEWED_BY</text></g><g class="relationship" transform="translate(280.86175079633597 78.3228902796499) rotate(186.44216634592465)"><path class="outline" fill="#A5ABB6" stroke="none" d="M 25 0.5 L 46.79071841819369 0.5 L 46.79071841819369 -0.5 L 25 -0.5 Z M 99.47040591819369 0.5 L 121.26112433638738 0.5 L 121.26112433638738 3.5 L 128.26112433638738 0 L 121.26112433638738 -3.5 L 121.26112433638738 -0.5 L 99.47040591819369 -0.5 Z"/><text text-anchor="middle" pointer-events="none" font-size="8px" fill="#000000" x="73.13056216819369" y="3" transform="rotate(180 73.13056216819369 0)" font-family="sans-serif">VIEWED_BY</text></g><g class="relationship" transform="translate(250.78579886827487 -33.62469214240186) rotate(502.21461003650796)"><path class="outline" fill="#A5ABB6" stroke="none" d="M 25 0.5 L 47.48248909205749 0.5 L 47.48248909205749 -0.5 L 25 -0.5 Z M 100.16217659205749 0.5 L 122.64466568411498 0.5 L 122.64466568411498 3.5 L 129.64466568411498 0 L 122.64466568411498 -3.5 L 122.64466568411498 -0.5 L 100.16217659205749 -0.5 Z"/><text text-anchor="middle" pointer-events="none" font-size="8px" fill="#000000" x="73.82233284205749" y="3" transform="rotate(180 73.82233284205749 0)" font-family="sans-serif">VIEWED_BY</text></g><g class="relationship" transform="translate(250.9307524004195 26.350937351064484) rotate(524.1345781345445)"><path class="outline" fill="#A5ABB6" stroke="none" d="M 25 0.5 L 33.764248826666275 0.5 L 33.764248826666275 -0.5 L 25 -0.5 Z M 86.44393632666628 0.5 L 95.20818515333255 0.5 L 95.20818515333255 3.5 L 102.20818515333255 0 L 95.20818515333255 -3.5 L 95.20818515333255 -0.5 L 86.44393632666628 -0.5 Z"/><text text-anchor="middle" pointer-events="none" font-size="8px" fill="#000000" x="60.104092576666275" y="3" transform="rotate(180 60.104092576666275 0)" font-family="sans-serif">VIEWED_BY</text></g><g class="relationship" transform="translate(193.84276720635026 -52.458657043299105) rotate(479.8847466304586)"><path class="outline" fill="#A5ABB6" stroke="none" d="M 25 0.5 L 35.662898323636355 0.5 L 35.662898323636355 -0.5 L 25 -0.5 Z M 88.34258582363636 0.5 L 99.00548414727271 0.5 L 99.00548414727271 3.5 L 106.00548414727271 0 L 99.00548414727271 -3.5 L 99.00548414727271 -0.5 L 88.34258582363636 -0.5 Z"/><text text-anchor="middle" pointer-events="none" font-size="8px" fill="#000000" x="62.002742073636355" y="3" transform="rotate(180 62.002742073636355 0)" font-family="sans-serif">VIEWED_BY</text></g><g class="relationship" transform="translate(145.9222228319548 -88.54834512293081) rotate(456.61353186109255)"><path class="outline" fill="#A5ABB6" stroke="none" d="M 25 0.5 L 45.4991414804213 0.5 L 45.4991414804213 -0.5 L 25 -0.5 Z M 98.1788289804213 0.5 L 118.6779704608426 0.5 L 118.6779704608426 3.5 L 125.6779704608426 0 L 118.6779704608426 -3.5 L 118.6779704608426 -0.5 L 98.1788289804213 -0.5 Z"/><text text-anchor="middle" pointer-events="none" font-size="8px" fill="#000000" x="71.8389852304213" y="3" transform="rotate(180 71.8389852304213 0)" font-family="sans-serif">VIEWED_BY</text></g><g class="relationship" transform="translate(88.32171399991012 -71.86906176575451) rotate(433.1633686890834)"><path class="outline" fill="#A5ABB6" stroke="none" d="M 25 0.5 L 39.63629187381147 0.5 L 39.63629187381147 -0.5 L 25 -0.5 Z M 92.31597937381147 0.5 L 106.95227124762295 0.5 L 106.95227124762295 3.5 L 113.95227124762295 0 L 106.95227124762295 -3.5 L 106.95227124762295 -0.5 L 92.31597937381147 -0.5 Z"/><text text-anchor="middle" pointer-events="none" font-size="8px" fill="#000000" x="65.97613562381147" y="3" font-family="sans-serif">VIEWED_BY</text></g><g class="relationship" transform="translate(32.33286897432199 -50.34146044193092) rotate(409.19453541345194)"><path class="outline" fill="#A5ABB6" stroke="none" d="M 25 0.5 L 43.79180700917888 0.5 L 43.79180700917888 -0.5 L 25 -0.5 Z M 96.47149450917888 0.5 L 115.26330151835776 0.5 L 115.26330151835776 3.5 L 122.26330151835776 0 L 115.26330151835776 -3.5 L 115.26330151835776 -0.5 L 96.47149450917888 -0.5 Z"/><text text-anchor="middle" pointer-events="none" font-size="8px" fill="#000000" x="70.13165075917888" y="3" font-family="sans-serif">VIEWED_BY</text></g><g class="relationship" transform="translate(18.432922632120057 37.882479140023534) rotate(371.9175787908655)"><path class="outline" fill="#A5ABB6" stroke="none" d="M 25 0.5 L 26.44097818682164 0.5 L 26.44097818682164 -0.5 L 25 -0.5 Z M 79.12066568682164 0.5 L 80.56164387364328 0.5 L 80.56164387364328 3.5 L 87.56164387364328 0 L 80.56164387364328 -3.5 L 80.56164387364328 -0.5 L 79.12066568682164 -0.5 Z"/><text text-anchor="middle" pointer-events="none" font-size="8px" fill="#000000" x="52.78082193682164" y="3" font-family="sans-serif">VIEWED_BY</text></g><g class="relationship" transform="translate(-14.535940391009126 -12.212986566539321) rotate(387.1348152599813)"><path class="outline" fill="#A5ABB6" stroke="none" d="M 25 0.5 L 50.56163649965481 0.5 L 50.56163649965481 -0.5 L 25 -0.5 Z M 103.24132399965481 0.5 L 128.80296049930962 0.5 L 128.80296049930962 3.5 L 135.80296049930962 0 L 128.80296049930962 -3.5 L 128.80296049930962 -0.5 L 103.24132399965481 -0.5 Z"/><text text-anchor="middle" pointer-events="none" font-size="8px" fill="#000000" x="76.90148024965481" y="3" font-family="sans-serif">VIEWED_BY</text></g><g class="relationship" transform="translate(-0.023970179376538087 121.851553966858) rotate(334.72211830225115)"><path class="outline" fill="#A5ABB6" stroke="none" d="M 25 0.5 L 41.26477763118601 0.5 L 41.26477763118601 -0.5 L 25 -0.5 Z M 93.944465131186 0.5 L 110.20924276237201 0.5 L 110.20924276237201 3.5 L 117.20924276237201 0 L 110.20924276237201 -3.5 L 110.20924276237201 -0.5 L 93.944465131186 -0.5 Z"/><text text-anchor="middle" pointer-events="none" font-size="8px" fill="#000000" x="67.604621381186" y="3" font-family="sans-serif">VIEWED_BY</text></g><g class="relationship" transform="translate(-31.770393295546654 70.73047669971629) rotate(356.5723522681667)"><path class="outline" fill="#A5ABB6" stroke="none" d="M 25 0.5 L 50.473213495278 0.5 L 50.473213495278 -0.5 L 25 -0.5 Z M 103.152900995278 0.5 L 128.626114490556 0.5 L 128.626114490556 3.5 L 135.626114490556 0 L 128.626114490556 -3.5 L 128.626114490556 -0.5 L 103.152900995278 -0.5 Z"/><text text-anchor="middle" pointer-events="none" font-size="8px" fill="#000000" x="76.813057245278" y="3" font-family="sans-serif">VIEWED_BY</text></g><g class="relationship" transform="translate(13.972132671132279 183.71442090766766) rotate(313.07031303110284)"><path class="outline" fill="#A5ABB6" stroke="none" d="M 25 0.5 L 54.06484379971823 0.5 L 54.06484379971823 -0.5 L 25 -0.5 Z M 106.74453129971823 0.5 L 135.80937509943647 0.5 L 135.80937509943647 3.5 L 142.80937509943647 0 L 135.80937509943647 -3.5 L 135.80937509943647 -0.5 L 106.74453129971823 -0.5 Z"/><text text-anchor="middle" pointer-events="none" font-size="8px" fill="#000000" x="80.40468754971823" y="3" font-family="sans-serif">VIEWED_BY</text></g><g class="relationship" transform="translate(66.32789859596126 154.47116689044353) rotate(303.6947422944816)"><path class="outline" fill="#A5ABB6" stroke="none" d="M 25 0.5 L 26.25609942353274 0.5 L 26.25609942353274 -0.5 L 25 -0.5 Z M 78.93578692353273 0.5 L 80.19188634706548 0.5 L 80.19188634706548 3.5 L 87.19188634706548 0 L 80.19188634706548 -3.5 L 80.19188634706548 -0.5 L 78.93578692353273 -0.5 Z"/><text text-anchor="middle" pointer-events="none" font-size="8px" fill="#000000" x="52.59594317353274" y="3" font-family="sans-serif">VIEWED_BY</text></g><g class="relationship" transform="translate(86.95531446793241 210.85613408246854) rotate(285.53179210007784)"><path class="outline" fill="#A5ABB6" stroke="none" d="M 25 0.5 L 47.86227116702244 0.5 L 47.86227116702244 -0.5 L 25 -0.5 Z M 100.54195866702244 0.5 L 123.40422983404488 0.5 L 123.40422983404488 3.5 L 130.40422983404488 0 L 123.40422983404488 -3.5 L 123.40422983404488 -0.5 L 100.54195866702244 -0.5 Z"/><text text-anchor="middle" pointer-events="none" font-size="8px" fill="#000000" x="74.20211491702244" y="3" font-family="sans-serif">VIEWED_BY</text></g></g><g class="layer nodes"><g class="node" transform="translate(147.36207980141467,216.68645929687295)"><circle class="outline" cx="0" cy="0" r="25" fill="#D9C8AE" stroke="#c0a378" stroke-width="2px"/><text text-anchor="middle" pointer-events="none" font-family="sans-serif" dy="1.5625" font-size="25" fill="#2A2C34"/><text text-anchor="middle" pointer-events="none" font-family="sans-serif" dy="1.5625" font-size="25" fill="#2A2C34"/><text text-anchor="middle" pointer-events="none" font-family="sans-serif" dy="1.5625" font-size="25" fill="#2A2C34"/><text text-anchor="middle" pointer-events="none" x="0" y="-5" font-size="10px" fill="#2A2C34" font-family="sans-serif"> SET OF</text><text text-anchor="middle" pointer-events="none" x="0" y="5" font-size="10px" fill="#2A2C34" font-family="sans-serif"> 2</text><text text-anchor="middle" pointer-events="none" x="0" y="15" font-size="10px" fill="#2A2C34" font-family="sans-serif"> CERA…</text></g><g class="node" transform="translate(128.56837613868052,61.126952729269526)"><circle class="outline" cx="0" cy="0" r="25" fill="#8DCC93" stroke="#5db665" stroke-width="2px"/><text text-anchor="middle" pointer-events="none" font-family="sans-serif" dy="1.5625" font-size="25" fill="#2A2C34"/><text text-anchor="middle" pointer-events="none" x="0" y="5" font-size="10px" fill="#2A2C34" font-family="sans-serif"> 14000</text></g><g class="node" transform="translate(178.76460702895324,165.57406992220356)"><circle class="outline" cx="0" cy="0" r="25" fill="#D9C8AE" stroke="#c0a378" stroke-width="2px"/><text text-anchor="middle" pointer-events="none" font-family="sans-serif" dy="1.5625" font-size="25" fill="#2A2C34"/><text text-anchor="middle" pointer-events="none" x="0" y="5" font-size="10px" fill="#2A2C34" font-family="sans-serif"> GINGH…</text></g><g class="node" transform="translate(234.18071726710764,188.46013144148114)"><circle class="outline" cx="0" cy="0" r="25" fill="#D9C8AE" stroke="#c0a378" stroke-width="2px"/><text text-anchor="middle" pointer-events="none" font-family="sans-serif" dy="1.5625" font-size="25" fill="#2A2C34"/><text text-anchor="middle" pointer-events="none" font-family="sans-serif" dy="1.5625" font-size="25" fill="#2A2C34"/><text text-anchor="middle" pointer-events="none" font-family="sans-serif" dy="1.5625" font-size="25" fill="#2A2C34"/><text text-anchor="middle" pointer-events="none" x="0" y="-5" font-size="10px" fill="#2A2C34" font-family="sans-serif"> IVORY</text><text text-anchor="middle" pointer-events="none" x="0" y="5" font-size="10px" fill="#2A2C34" font-family="sans-serif"> WICKER</text><text text-anchor="middle" pointer-events="none" x="0" y="15" font-size="10px" fill="#2A2C34" font-family="sans-serif"> HEART</text></g><g class="node" transform="translate(245.39500960872152,126.70472510602794)"><circle class="outline" cx="0" cy="0" r="25" fill="#D9C8AE" stroke="#c0a378" stroke-width="2px"/><text text-anchor="middle" pointer-events="none" font-family="sans-serif" dy="1.5625" font-size="25" fill="#2A2C34"/><text text-anchor="middle" pointer-events="none" x="0" y="5" font-size="10px" fill="#2A2C34" font-family="sans-serif"> VINTAGE</text></g><g class="node" transform="translate(280.86175079633597,78.3228902796499)"><circle class="outline" cx="0" cy="0" r="25" fill="#D9C8AE" stroke="#c0a378" stroke-width="2px"/><text text-anchor="middle" pointer-events="none" font-family="sans-serif" dy="1.5625" font-size="25" fill="#2A2C34"/><text text-anchor="middle" pointer-events="none" font-family="sans-serif" dy="1.5625" font-size="25" fill="#2A2C34"/><text text-anchor="middle" pointer-events="none" x="0" y="0" font-size="10px" fill="#2A2C34" font-family="sans-serif"> SMALL</text><text text-anchor="middle" pointer-events="none" x="0" y="10" font-size="10px" fill="#2A2C34" font-family="sans-serif"> HANGI…</text></g><g class="node" transform="translate(250.78579886827487,-33.62469214240186)"><circle class="outline" cx="0" cy="0" r="25" fill="#D9C8AE" stroke="#c0a378" stroke-width="2px"/><text text-anchor="middle" pointer-events="none" font-family="sans-serif" dy="1.5625" font-size="25" fill="#2A2C34"/><text text-anchor="middle" pointer-events="none" x="0" y="5" font-size="10px" fill="#2A2C34" font-family="sans-serif"> ENGLISH</text></g><g class="node" transform="translate(250.9307524004195,26.350937351064484)"><circle class="outline" cx="0" cy="0" r="25" fill="#D9C8AE" stroke="#c0a378" stroke-width="2px"/><text text-anchor="middle" pointer-events="none" font-family="sans-serif" dy="1.5625" font-size="25" fill="#2A2C34"/><text text-anchor="middle" pointer-events="none" font-family="sans-serif" dy="1.5625" font-size="25" fill="#2A2C34"/><text text-anchor="middle" pointer-events="none" x="0" y="0" font-size="10px" fill="#2A2C34" font-family="sans-serif"> CLASSIC</text><text text-anchor="middle" pointer-events="none" x="0" y="10" font-size="10px" fill="#2A2C34" font-family="sans-serif"> METAL</text></g><g class="node" transform="translate(193.84276720635026,-52.458657043299105)"><circle class="outline" cx="0" cy="0" r="25" fill="#D9C8AE" stroke="#c0a378" stroke-width="2px"/><text text-anchor="middle" pointer-events="none" font-family="sans-serif" dy="1.5625" font-size="25" fill="#2A2C34"/><text text-anchor="middle" pointer-events="none" font-family="sans-serif" dy="1.5625" font-size="25" fill="#2A2C34"/><text text-anchor="middle" pointer-events="none" font-family="sans-serif" dy="1.5625" font-size="25" fill="#2A2C34"/><text text-anchor="middle" pointer-events="none" x="0" y="-5" font-size="10px" fill="#2A2C34" font-family="sans-serif"> WIRE</text><text text-anchor="middle" pointer-events="none" x="0" y="5" font-size="10px" fill="#2A2C34" font-family="sans-serif"> EGG</text><text text-anchor="middle" pointer-events="none" x="0" y="15" font-size="10px" fill="#2A2C34" font-family="sans-serif"> BASK…</text></g><g class="node" transform="translate(145.9222228319548,-88.54834512293081)"><circle class="outline" cx="0" cy="0" r="25" fill="#D9C8AE" stroke="#c0a378" stroke-width="2px"/><text text-anchor="middle" pointer-events="none" font-family="sans-serif" dy="1.5625" font-size="25" fill="#2A2C34"/><text text-anchor="middle" pointer-events="none" font-family="sans-serif" dy="1.5625" font-size="25" fill="#2A2C34"/><text text-anchor="middle" pointer-events="none" x="0" y="0" font-size="10px" fill="#2A2C34" font-family="sans-serif"> GREEN</text><text text-anchor="middle" pointer-events="none" x="0" y="10" font-size="10px" fill="#2A2C34" font-family="sans-serif"> PENDA…</text></g><g class="node" transform="translate(88.32171399991012,-71.86906176575451)"><circle class="outline" cx="0" cy="0" r="25" fill="#D9C8AE" stroke="#c0a378" stroke-width="2px"/><text text-anchor="middle" pointer-events="none" font-family="sans-serif" dy="1.5625" font-size="25" fill="#2A2C34"/><text text-anchor="middle" pointer-events="none" x="0" y="5" font-size="10px" fill="#2A2C34" font-family="sans-serif"> PINK/G…</text></g><g class="node" transform="translate(32.33286897432199,-50.34146044193092)"><circle class="outline" cx="0" cy="0" r="25" fill="#D9C8AE" stroke="#c0a378" stroke-width="2px"/><text text-anchor="middle" pointer-events="none" font-family="sans-serif" dy="1.5625" font-size="25" fill="#2A2C34"/><text text-anchor="middle" pointer-events="none" x="0" y="5" font-size="10px" fill="#2A2C34" font-family="sans-serif"> GARLA…</text></g><g class="node" transform="translate(18.432922632120057,37.882479140023534)"><circle class="outline" cx="0" cy="0" r="25" fill="#D9C8AE" stroke="#c0a378" stroke-width="2px"/><text text-anchor="middle" pointer-events="none" font-family="sans-serif" dy="1.5625" font-size="25" fill="#2A2C34"/><text text-anchor="middle" pointer-events="none" font-family="sans-serif" dy="1.5625" font-size="25" fill="#2A2C34"/><text text-anchor="middle" pointer-events="none" font-family="sans-serif" dy="1.5625" font-size="25" fill="#2A2C34"/><text text-anchor="middle" pointer-events="none" x="0" y="-5" font-size="10px" fill="#2A2C34" font-family="sans-serif"> GIFT</text><text text-anchor="middle" pointer-events="none" x="0" y="5" font-size="10px" fill="#2A2C34" font-family="sans-serif"> BAG</text><text text-anchor="middle" pointer-events="none" x="0" y="15" font-size="10px" fill="#2A2C34" font-family="sans-serif"> BIRTH…</text></g><g class="node" transform="translate(-14.535940391009126,-12.212986566539321)"><circle class="outline" cx="0" cy="0" r="25" fill="#D9C8AE" stroke="#c0a378" stroke-width="2px"/><text text-anchor="middle" pointer-events="none" font-family="sans-serif" dy="1.5625" font-size="25" fill="#2A2C34"/><text text-anchor="middle" pointer-events="none" font-family="sans-serif" dy="1.5625" font-size="25" fill="#2A2C34"/><text text-anchor="middle" pointer-events="none" font-family="sans-serif" dy="1.5625" font-size="25" fill="#2A2C34"/><text text-anchor="middle" pointer-events="none" x="0" y="-5" font-size="10px" fill="#2A2C34" font-family="sans-serif"> UNION</text><text text-anchor="middle" pointer-events="none" x="0" y="5" font-size="10px" fill="#2A2C34" font-family="sans-serif"> STRIPE</text><text text-anchor="middle" pointer-events="none" x="0" y="15" font-size="10px" fill="#2A2C34" font-family="sans-serif"> CUSH…</text></g><g class="node" transform="translate(-0.023970179376538087,121.851553966858)"><circle class="outline" cx="0" cy="0" r="25" fill="#D9C8AE" stroke="#c0a378" stroke-width="2px"/><text text-anchor="middle" pointer-events="none" font-family="sans-serif" dy="1.5625" font-size="25" fill="#2A2C34"/><text text-anchor="middle" pointer-events="none" x="0" y="5" font-size="10px" fill="#2A2C34" font-family="sans-serif"> ROMAN…</text></g><g class="node" transform="translate(-31.770393295546654,70.73047669971629)"><circle class="outline" cx="0" cy="0" r="25" fill="#D9C8AE" stroke="#c0a378" stroke-width="2px"/><text text-anchor="middle" pointer-events="none" font-family="sans-serif" dy="1.5625" font-size="25" fill="#2A2C34"/><text text-anchor="middle" pointer-events="none" font-family="sans-serif" dy="1.5625" font-size="25" fill="#2A2C34"/><text text-anchor="middle" pointer-events="none" x="0" y="0" font-size="10px" fill="#2A2C34" font-family="sans-serif"> RED</text><text text-anchor="middle" pointer-events="none" x="0" y="10" font-size="10px" fill="#2A2C34" font-family="sans-serif"> RETRO…</text></g><g class="node" transform="translate(13.972132671132279,183.71442090766766)"><circle class="outline" cx="0" cy="0" r="25" fill="#D9C8AE" stroke="#c0a378" stroke-width="2px"/><text text-anchor="middle" pointer-events="none" font-family="sans-serif" dy="1.5625" font-size="25" fill="#2A2C34"/><text text-anchor="middle" pointer-events="none" x="0" y="5" font-size="10px" fill="#2A2C34" font-family="sans-serif"> ANTIQUE</text></g><g class="node" transform="translate(66.32789859596126,154.47116689044353)"><circle class="outline" cx="0" cy="0" r="25" fill="#D9C8AE" stroke="#c0a378" stroke-width="2px"/><text text-anchor="middle" pointer-events="none" font-family="sans-serif" dy="1.5625" font-size="25" fill="#2A2C34"/><text text-anchor="middle" pointer-events="none" font-family="sans-serif" dy="1.5625" font-size="25" fill="#2A2C34"/><text text-anchor="middle" pointer-events="none" font-family="sans-serif" dy="1.5625" font-size="25" fill="#2A2C34"/><text text-anchor="middle" pointer-events="none" x="0" y="-5" font-size="10px" fill="#2A2C34" font-family="sans-serif"> LUNCH</text><text text-anchor="middle" pointer-events="none" x="0" y="5" font-size="10px" fill="#2A2C34" font-family="sans-serif"> BAG</text><text text-anchor="middle" pointer-events="none" x="0" y="15" font-size="10px" fill="#2A2C34" font-family="sans-serif"> DOLLY</text></g><g class="node" transform="translate(86.95531446793241,210.85613408246854)"><circle class="outline" cx="0" cy="0" r="25" fill="#D9C8AE" stroke="#c0a378" stroke-width="2px"/><text text-anchor="middle" pointer-events="none" font-family="sans-serif" dy="1.5625" font-size="25" fill="#2A2C34"/><text text-anchor="middle" pointer-events="none" font-family="sans-serif" dy="1.5625" font-size="25" fill="#2A2C34"/><text text-anchor="middle" pointer-events="none" font-family="sans-serif" dy="1.5625" font-size="25" fill="#2A2C34"/><text text-anchor="middle" pointer-events="none" x="0" y="-5" font-size="10px" fill="#2A2C34" font-family="sans-serif"> ROSE</text><text text-anchor="middle" pointer-events="none" x="0" y="5" font-size="10px" fill="#2A2C34" font-family="sans-serif"> DU SUD</text><text text-anchor="middle" pointer-events="none" x="0" y="15" font-size="10px" fill="#2A2C34" font-family="sans-serif"> WASH…</text></g></g></svg>