<svg xmlns="http://www.w3.org/2000/svg" width="331.94903564453125" height="330.53582763671875" viewBox="-65.63890075683594 -66.96424102783203 331.94903564453125 330.53582763671875"><title>Neo4j Graph Visualization</title><desc>Created using Neo4j (http://www.neo4j.com/)</desc><g class="layer relationships"><g class="relationship" transform="translate(117.39027520689244 234.57158125461515) rotate(262.5552731875456)"><path class="outline" fill="#A5ABB6" stroke="none" d="M 25 0.5 L 43.31400699131626 0.5 L 43.31400699131626 -0.5 L 25 -0.5 Z M 87.54838199131626 0.5 L 105.86238898263252 0.5 L 105.86238898263252 3.5 L 112.86238898263252 0 L 105.86238898263252 -3.5 L 105.86238898263252 -0.5 L 87.54838199131626 -0.5 Z"/><text text-anchor="middle" pointer-events="none" font-size="8px" fill="#000000" x="65.43119449131626" y="3" transform="rotate(180 65.43119449131626 0)" font-family="sans-serif">MADE_BY</text></g><g class="relationship" transform="translate(173.48462121268963 213.389853233718) rotate(237.37186393316745)"><path class="outline" fill="#A5ABB6" stroke="none" d="M 25 0.5 L 42.96522102651272 0.5 L 42.96522102651272 -0.5 L 25 -0.5 Z M 87.19959602651272 0.5 L 105.16481705302544 0.5 L 105.16481705302544 3.5 L 112.16481705302544 0 L 105.16481705302544 -3.5 L 105.16481705302544 -0.5 L 87.19959602651272 -0.5 Z"/><text text-anchor="middle" pointer-events="none" font-size="8px" fill="#000000" x="65.08240852651272" y="3" transform="rotate(180 65.08240852651272 0)" font-family="sans-serif">MADE_BY</text></g><g class="relationship" transform="translate(214.25371125539758 169.3856918917225) rotate(211.93726867487788)"><path class="outline" fill="#A5ABB6" stroke="none" d="M 25 0.5 L 41.9779497478235 0.5 L 41.9779497478235 -0.5 L 25 -0.5 Z M 86.2123247478235 0.5 L 103.190274495647 0.5 L 103.190274495647 3.5 L 110.190274495647 0 L 103.190274495647 -3.5 L 103.190274495647 -0.5 L 86.2123247478235 -0.5 Z"/><text text-anchor="middle" pointer-events="none" font-size="8px" fill="#000000" x="64.0951372478235" y="3" transform="rotate(180 64.0951372478235 0)" font-family="sans-serif">MADE_BY</text></g><g class="relationship" transform="translate(237.31013150161215 114.0277164301515) rotate(186.68795987724747)"><path class="outline" fill="#A5ABB6" stroke="none" d="M 25 0.5 L 43.74614125971601 0.5 L 43.74614125971601 -0.5 L 25 -0.5 Z M 87.98051625971601 0.5 L 106.72665751943202 0.5 L 106.72665751943202 3.5 L 113.72665751943202 0 L 106.72665751943202 -3.5 L 106.72665751943202 -0.5 L 87.98051625971601 -0.5 Z"/><text text-anchor="middle" pointer-events="none" font-size="8px" fill="#000000" x="65.86332875971601" y="3" transform="rotate(180 65.86332875971601 0)" font-family="sans-serif">MADE_BY</text></g><g class="relationship" transform="translate(224.95321934076543 55.31192638369113) rotate(521.2569212743049)"><path class="outline" fill="#A5ABB6" stroke="none" d="M 25 0.5 L 40.60765031119766 0.5 L 40.60765031119766 -0.5 L 25 -0.5 Z M 84.84202531119766 0.5 L 100.44967562239532 0.5 L 100.44967562239532 3.5 L 107.44967562239532 0 L 100.44967562239532 -3.5 L 100.44967562239532 -0.5 L 84.84202531119766 -0.5 Z"/><text text-anchor="middle" pointer-events="none" font-size="8px" fill="#000000" x="62.72483781119766" y="3" transform="rotate(180 62.72483781119766 0)" font-family="sans-serif">MADE_BY</text></g><g class="relationship" transform="translate(201.4600569166793 0.10072957109900613) rotate(496.1939157923192)"><path class="outline" fill="#A5ABB6" stroke="none" d="M 25 0.5 L 45.003875962161075 0.5 L 45.003875962161075 -0.5 L 25 -0.5 Z M 89.23825096216108 0.5 L 109.24212692432215 0.5 L 109.24212692432215 3.5 L 116.24212692432215 0 L 109.24212692432215 -3.5 L 109.24212692432215 -0.5 L 89.23825096216108 -0.5 Z"/><text text-anchor="middle" pointer-events="none" font-size="8px" fill="#000000" x="67.12106346216108" y="3" transform="rotate(180 67.12106346216108 0)" font-family="sans-serif">MADE_BY</text></g><g class="relationship" transform="translate(144.38676381730463 -28.57698065681654) rotate(469.5328397663939)"><path class="outline" fill="#A5ABB6" stroke="none" d="M 25 0.5 L 41.46770161978678 0.5 L 41.46770161978678 -0.5 L 25 -0.5 Z M 85.70207661978678 0.5 L 102.16977823957356 0.5 L 102.16977823957356 3.5 L 109.16977823957356 0 L 102.16977823957356 -3.5 L 102.16977823957356 -0.5 L 85.70207661978678 -0.5 Z"/><text text-anchor="middle" pointer-events="none" font-size="8px" fill="#000000" x="63.58488911978678" y="3" transform="rotate(180 63.58488911978678 0)" font-family="sans-serif">MADE_BY</text></g><g class="relationship" transform="translate(82.00118102857303 -37.964239206218245) rotate(442.64797837373015)"><path class="outline" fill="#A5ABB6" stroke="none" d="M 25 0.5 L 42.863599703252916 0.5 L 42.863599703252916 -0.5 L 25 -0.5 Z M 87.09797470325292 0.5 L 104.96157440650583 0.5 L 104.96157440650583 3.5 L 111.96157440650583 0 L 104.96157440650583 -3.5 L 104.96157440650583 -0.5 L 87.09797470325292 -0.5 Z"/><text text-anchor="middle" pointer-events="none" font-size="8px" fill="#000000" x="64.98078720325292" y="3" font-family="sans-serif">MADE_BY</text></g><g class="relationship" transform="translate(26.118092606747936 -16.140053339339776) rotate(417.2234145427063)"><path class="outline" fill="#A5ABB6" stroke="none" d="M 25 0.5 L 42.18313438925526 0.5 L 42.18313438925526 -0.5 L 25 -0.5 Z M 86.41750938925526 0.5 L 103.60064377851052 0.5 L 103.60064377851052 3.5 L 110.60064377851052 0 L 103.60064377851052 -3.5 L 103.60064377851052 -0.5 L 86.41750938925526 -0.5 Z"/><text text-anchor="middle" pointer-events="none" font-size="8px" fill="#000000" x="64.30032188925526" y="3" font-family="sans-serif">MADE_BY</text></g><g class="relationship" transform="translate(-15.956569820671158 26.62423867640693) rotate(391.67222325782615)"><path class="outline" fill="#A5ABB6" stroke="none" d="M 25 0.5 L 42.22954340124738 0.5 L 42.22954340124738 -0.5 L 25 -0.5 Z M 86.46391840124738 0.5 L 103.69346180249477 0.5 L 103.69346180249477 3.5 L 110.69346180249477 0 L 103.69346180249477 -3.5 L 103.69346180249477 -0.5 L 86.46391840124738 -0.5 Z"/><text text-anchor="middle" pointer-events="none" font-size="8px" fill="#000000" x="64.34673090124738" y="3" font-family="sans-serif">MADE_BY</text></g><g class="relationship" transform="translate(-36.6389039851727 82.9411707811314) rotate(366.2572812889266)"><path class="outline" fill="#A5ABB6" stroke="none" d="M 25 0.5 L 42.87404574994609 0.5 L 42.87404574994609 -0.5 L 25 -0.5 Z M 87.10842074994609 0.5 L 104.98246649989218 0.5 L 104.98246649989218 3.5 L 111.98246649989218 0 L 104.98246649989218 -3.5 L 104.98246649989218 -0.5 L 87.10842074994609 -0.5 Z"/><text text-anchor="middle" pointer-events="none" font-size="8px" fill="#000000" x="64.99123324994609" y="3" font-family="sans-serif">MADE_BY</text></g><g class="relationship" transform="translate(-27.326380263237617 144.99631949127968) rotate(339.62045314303543)"><path class="outline" fill="#A5ABB6" stroke="none" d="M 25 0.5 L 42.04496752734978 0.5 L 42.04496752734978 -0.5 L 25 -0.5 Z M 86.27934252734978 0.5 L 103.32431005469957 0.5 L 103.32431005469957 3.5 L 110.32431005469957 0 L 103.32431005469957 -3.5 L 103.32431005469957 -0.5 L 86.27934252734978 -0.5 Z"/><text text-anchor="middle" pointer-events="none" font-size="8px" fill="#000000" x="64.16215502734978" y="3" font-family="sans-serif">MADE_BY</text></g><g class="relationship" transform="translate(5.003722027064699 198.0329495475694) rotate(313.34124677853896)"><path class="outline" fill="#A5ABB6" stroke="none" d="M 25 0.5 L 43.24334701798287 0.5 L 43.24334701798287 -0.5 L 25 -0.5 Z M 87.47772201798287 0.5 L 105.72106903596574 0.5 L 105.72106903596574 3.5 L 112.72106903596574 0 L 105.72106903596574 -3.5 L 105.72106903596574 -0.5 L 87.47772201798287 -0.5 Z"/><text text-anchor="middle" pointer-events="none" font-size="8px" fill="#000000" x="65.36053451798287" y="3" font-family="sans-serif">MADE_BY</text></g><g class="relationship" transform="translate(58.00052007345064 226.1633619411158) rotate(287.9362972256839)"><path class="outline" fill="#A5ABB6" stroke="none" d="M 25 0.5 L 41.80561099507827 0.5 L 41.80561099507827 -0.5 L 25 -0.5 Z M 86.03998599507827 0.5 L 102.84559699015654 0.5 L 102.84559699015654 3.5 L 109.84559699015654 0 L 102.84559699015654 -3.5 L 102.84559699015654 -0.5 L 86.03998599507827 -0.5 Z"/><text text-anchor="middle" pointer-events="none" font-size="8px" fill="#000000" x="63.92279849507827" y="3" font-family="sans-serif">MADE_BY</text></g></g><g class="layer nodes"><g class="node" transform="translate(117.39027520689244,234.57158125461515)"><circle class="outline" cx="0" cy="0" r="25" fill="#F16667" stroke="#eb2728" stroke-width="2px"/><text text-anchor="middle" pointer-events="none" font-family="sans-serif" dy="1.5625" font-size="25" fill="#FFFFFF"/><text text-anchor="middle" pointer-events="none" x="0" y="5" font-size="10px" fill="#FFFFFF" font-family="sans-serif"> 571940</text></g><g class="node" transform="translate(99.52748880268857,97.8713282999243)"><circle class="outline" cx="0" cy="0" r="25" fill="#8DCC93" stroke="#5db665" stroke-width="2px"/><text text-anchor="middle" pointer-events="none" font-family="sans-serif" dy="1.5625" font-size="25" fill="#2A2C34"/><text text-anchor="middle" pointer-events="none" x="0" y="5" font-size="10px" fill="#2A2C34" font-family="sans-serif"> 15301</text></g><g class="node" transform="translate(173.48462121268963,213.389853233718)"><circle class="outline" cx="0" cy="0" r="25" fill="#F16667" stroke="#eb2728" stroke-width="2px"/><text text-anchor="middle" pointer-events="none" font-family="sans-serif" dy="1.5625" font-size="25" fill="#FFFFFF"/><text text-anchor="middle" pointer-events="none" x="0" y="5" font-size="10px" fill="#FFFFFF" font-family="sans-serif"> C569320</text></g><g class="node" transform="translate(214.25371125539758,169.3856918917225)"><circle class="outline" cx="0" cy="0" r="25" fill="#F16667" stroke="#eb2728" stroke-width="2px"/><text text-anchor="middle" pointer-events="none" font-family="sans-serif" dy="1.5625" font-size="25" fill="#FFFFFF"/><text text-anchor="middle" pointer-events="none" x="0" y="5" font-size="10px" fill="#FFFFFF" font-family="sans-serif"> 568577</text></g><g class="node" transform="translate(237.31013150161215,114.0277164301515)"><circle class="outline" cx="0" cy="0" r="25" fill="#F16667" stroke="#eb2728" stroke-width="2px"/><text text-anchor="middle" pointer-events="none" font-family="sans-serif" dy="1.5625" font-size="25" fill="#FFFFFF"/><text text-anchor="middle" pointer-events="none" x="0" y="5" font-size="10px" fill="#FFFFFF" font-family="sans-serif"> 568578</text></g><g class="node" transform="translate(224.95321934076543,55.31192638369113)"><circle class="outline" cx="0" cy="0" r="25" fill="#F16667" stroke="#eb2728" stroke-width="2px"/><text text-anchor="middle" pointer-events="none" font-family="sans-serif" dy="1.5625" font-size="25" fill="#FFFFFF"/><text text-anchor="middle" pointer-events="none" x="0" y="5" font-size="10px" fill="#FFFFFF" font-family="sans-serif"> C564213</text></g><g class="node" transform="translate(201.4600569166793,0.10072957109900613)"><circle class="outline" cx="0" cy="0" r="25" fill="#F16667" stroke="#eb2728" stroke-width="2px"/><text text-anchor="middle" pointer-events="none" font-family="sans-serif" dy="1.5625" font-size="25" fill="#FFFFFF"/><text text-anchor="middle" pointer-events="none" x="0" y="5" font-size="10px" fill="#FFFFFF" font-family="sans-serif"> 563617</text></g><g class="node" transform="translate(144.38676381730463,-28.57698065681654)"><circle class="outline" cx="0" cy="0" r="25" fill="#F16667" stroke="#eb2728" stroke-width="2px"/><text text-anchor="middle" pointer-events="none" font-family="sans-serif" dy="1.5625" font-size="25" fill="#FFFFFF"/><text text-anchor="middle" pointer-events="none" x="0" y="5" font-size="10px" fill="#FFFFFF" font-family="sans-serif"> 560207</text></g><g class="node" transform="translate(82.00118102857303,-37.964239206218245)"><circle class="outline" cx="0" cy="0" r="25" fill="#F16667" stroke="#eb2728" stroke-width="2px"/><text text-anchor="middle" pointer-events="none" font-family="sans-serif" dy="1.5625" font-size="25" fill="#FFFFFF"/><text text-anchor="middle" pointer-events="none" x="0" y="5" font-size="10px" fill="#FFFFFF" font-family="sans-serif"> 557464</text></g><g class="node" transform="translate(26.118092606747936,-16.140053339339776)"><circle class="outline" cx="0" cy="0" r="25" fill="#F16667" stroke="#eb2728" stroke-width="2px"/><text text-anchor="middle" pointer-events="none" font-family="sans-serif" dy="1.5625" font-size="25" fill="#FFFFFF"/><text text-anchor="middle" pointer-events="none" x="0" y="5" font-size="10px" fill="#FFFFFF" font-family="sans-serif"> 555578</text></g><g class="node" transform="translate(-15.956569820671158,26.62423867640693)"><circle class="outline" cx="0" cy="0" r="25" fill="#F16667" stroke="#eb2728" stroke-width="2px"/><text text-anchor="middle" pointer-events="none" font-family="sans-serif" dy="1.5625" font-size="25" fill="#FFFFFF"/><text text-anchor="middle" pointer-events="none" x="0" y="5" font-size="10px" fill="#FFFFFF" font-family="sans-serif"> 555577</text></g><g class="node" transform="translate(-36.6389039851727,82.9411707811314)"><circle class="outline" cx="0" cy="0" r="25" fill="#F16667" stroke="#eb2728" stroke-width="2px"/><text text-anchor="middle" pointer-events="none" font-family="sans-serif" dy="1.5625" font-size="25" fill="#FFFFFF"/><text text-anchor="middle" pointer-events="none" x="0" y="5" font-size="10px" fill="#FFFFFF" font-family="sans-serif"> 553585</text></g><g class="node" transform="translate(-27.326380263237617,144.99631949127968)"><circle class="outline" cx="0" cy="0" r="25" fill="#F16667" stroke="#eb2728" stroke-width="2px"/><text text-anchor="middle" pointer-events="none" font-family="sans-serif" dy="1.5625" font-size="25" fill="#FFFFFF"/><text text-anchor="middle" pointer-events="none" x="0" y="5" font-size="10px" fill="#FFFFFF" font-family="sans-serif"> 551136</text></g><g class="node" transform="translate(5.003722027064699,198.0329495475694)"><circle class="outline" cx="0" cy="0" r="25" fill="#F16667" stroke="#eb2728" stroke-width="2px"/><text text-anchor="middle" pointer-events="none" font-family="sans-serif" dy="1.5625" font-size="25" fill="#FFFFFF"/><text text-anchor="middle" pointer-events="none" x="0" y="5" font-size="10px" fill="#FFFFFF" font-family="sans-serif"> 546827</text></g><g class="node" transform="translate(58.00052007345064,226.1633619411158)"><circle class="outline" cx="0" cy="0" r="25" fill="#F16667" stroke="#eb2728" stroke-width="2px"/><text text-anchor="middle" pointer-events="none" font-family="sans-serif" dy="1.5625" font-size="25" fill="#FFFFFF"/><text text-anchor="middle" pointer-events="none" x="0" y="5" font-size="10px" fill="#FFFFFF" font-family="sans-serif"> 537346</text></g></g></svg>