<svg xmlns="http://www.w3.org/2000/svg" width="314.68475341796875" height="315.48382568359375" viewBox="-67.16653442382812 -51.408321380615234 314.68475341796875 315.48382568359375"><title>Neo4j Graph Visualization</title><desc>Created using Neo4j (http://www.neo4j.com/)</desc><g class="layer relationships"><g class="relationship" transform="translate(115.65791947010482 235.07547986377423) rotate(258.8084045477359)"><path class="outline" fill="#A5ABB6" stroke="none" d="M 25 0.5 L 35.15777289739967 0.5 L 35.15777289739967 -0.5 L 25 -0.5 Z M 87.83746039739967 0.5 L 97.99523329479933 0.5 L 97.99523329479933 3.5 L 104.99523329479933 0 L 97.99523329479933 -3.5 L 97.99523329479933 -0.5 L 87.83746039739967 -0.5 Z"/><text text-anchor="middle" pointer-events="none" font-size="8px" fill="#000000" x="61.49761664739967" y="3" transform="rotate(180 61.49761664739967 0)" font-family="sans-serif">VIEWED_BY</text></g><g class="relationship" transform="translate(181.2795608069747 205.35358878690352) rotate(227.10946598454535)"><path class="outline" fill="#A5ABB6" stroke="none" d="M 25 0.5 L 36.90457112065707 0.5 L 36.90457112065707 -0.5 L 25 -0.5 Z M 89.58425862065707 0.5 L 101.48882974131413 0.5 L 101.48882974131413 3.5 L 108.48882974131413 0 L 101.48882974131413 -3.5 L 101.48882974131413 -0.5 L 89.58425862065707 -0.5 Z"/><text text-anchor="middle" pointer-events="none" font-size="8px" fill="#000000" x="63.24441487065707" y="3" transform="rotate(180 63.24441487065707 0)" font-family="sans-serif">VIEWED_BY</text></g><g class="relationship" transform="translate(214.46010769302052 147.9979947385694) rotate(198.06053907911928)"><path class="outline" fill="#A5ABB6" stroke="none" d="M 25 0.5 L 35.39060581736422 0.5 L 35.39060581736422 -0.5 L 25 -0.5 Z M 88.07029331736422 0.5 L 98.46089913472844 0.5 L 98.46089913472844 3.5 L 105.46089913472844 0 L 98.46089913472844 -3.5 L 98.46089913472844 -0.5 L 88.07029331736422 -0.5 Z"/><text text-anchor="middle" pointer-events="none" font-size="8px" fill="#000000" x="61.73044956736422" y="3" transform="rotate(180 61.73044956736422 0)" font-family="sans-serif">VIEWED_BY</text></g><g class="relationship" transform="translate(218.51825662303597 83.66429684123729) rotate(529.4361442769164)"><path class="outline" fill="#A5ABB6" stroke="none" d="M 25 0.5 L 35.30995294503411 0.5 L 35.30995294503411 -0.5 L 25 -0.5 Z M 87.98964044503411 0.5 L 98.29959339006822 0.5 L 98.29959339006822 3.5 L 105.29959339006822 0 L 98.29959339006822 -3.5 L 98.29959339006822 -0.5 L 87.98964044503411 -0.5 Z"/><text text-anchor="middle" pointer-events="none" font-size="8px" fill="#000000" x="61.64979669503411" y="3" transform="rotate(180 61.64979669503411 0)" font-family="sans-serif">VIEWED_BY</text></g><g class="relationship" transform="translate(194.96901408786454 24.72779965504706) rotate(501.61159064715287)"><path class="outline" fill="#A5ABB6" stroke="none" d="M 25 0.5 L 36.847692428672175 0.5 L 36.847692428672175 -0.5 L 25 -0.5 Z M 89.52737992867218 0.5 L 101.37507235734435 0.5 L 101.37507235734435 3.5 L 108.37507235734435 0 L 101.37507235734435 -3.5 L 101.37507235734435 -0.5 L 89.52737992867218 -0.5 Z"/><text text-anchor="middle" pointer-events="none" font-size="8px" fill="#000000" x="63.187536178672175" y="3" transform="rotate(180 63.187536178672175 0)" font-family="sans-serif">VIEWED_BY</text></g><g class="relationship" transform="translate(142.97002398778721 -11.665880875180141) rotate(473.78449354032415)"><path class="outline" fill="#A5ABB6" stroke="none" d="M 25 0.5 L 35.30179239289484 0.5 L 35.30179239289484 -0.5 L 25 -0.5 Z M 87.98147989289484 0.5 L 98.28327228578968 0.5 L 98.28327228578968 3.5 L 105.28327228578968 0 L 98.28327228578968 -3.5 L 98.28327228578968 -0.5 L 87.98147989289484 -0.5 Z"/><text text-anchor="middle" pointer-events="none" font-size="8px" fill="#000000" x="61.64163614289484" y="3" transform="rotate(180 61.64163614289484 0)" font-family="sans-serif">VIEWED_BY</text></g><g class="relationship" transform="translate(79.40477252317001 -22.408320858971386) rotate(445.15219039051203)"><path class="outline" fill="#A5ABB6" stroke="none" d="M 25 0.5 L 35.37374759488631 0.5 L 35.37374759488631 -0.5 L 25 -0.5 Z M 88.05343509488631 0.5 L 98.42718268977262 0.5 L 98.42718268977262 3.5 L 105.42718268977262 0 L 98.42718268977262 -3.5 L 98.42718268977262 -0.5 L 88.05343509488631 -0.5 Z"/><text text-anchor="middle" pointer-events="none" font-size="8px" fill="#000000" x="61.71359134488631" y="3" font-family="sans-serif">VIEWED_BY</text></g><g class="relationship" transform="translate(15.980742860447089 -3.200085258216888) rotate(416.09150442968496)"><path class="outline" fill="#A5ABB6" stroke="none" d="M 25 0.5 L 36.884111904416926 0.5 L 36.884111904416926 -0.5 L 25 -0.5 Z M 89.56379940441693 0.5 L 101.44791130883385 0.5 L 101.44791130883385 3.5 L 108.44791130883385 0 L 101.44791130883385 -3.5 L 101.44791130883385 -0.5 L 89.56379940441693 -0.5 Z"/><text text-anchor="middle" pointer-events="none" font-size="8px" fill="#000000" x="63.223955654416926" y="3" font-family="sans-serif">VIEWED_BY</text></g><g class="relationship" transform="translate(-27.946914512705877 53.91703278740539) rotate(384.3752766152224)"><path class="outline" fill="#A5ABB6" stroke="none" d="M 25 0.5 L 35.13927585725892 0.5 L 35.13927585725892 -0.5 L 25 -0.5 Z M 87.81896335725892 0.5 L 97.95823921451785 0.5 L 97.95823921451785 3.5 L 104.95823921451785 0 L 97.95823921451785 -3.5 L 97.95823921451785 -0.5 L 87.81896335725892 -0.5 Z"/><text text-anchor="middle" pointer-events="none" font-size="8px" fill="#000000" x="61.47911960725892" y="3" font-family="sans-serif">VIEWED_BY</text></g><g class="relationship" transform="translate(-38.16653181554036 123.72230557270619) rotate(352.8329509623595)"><path class="outline" fill="#A5ABB6" stroke="none" d="M 25 0.5 L 34.96329662879354 0.5 L 34.96329662879354 -0.5 L 25 -0.5 Z M 87.64298412879354 0.5 L 97.60628075758709 0.5 L 97.60628075758709 3.5 L 104.60628075758709 0 L 97.60628075758709 -3.5 L 97.60628075758709 -0.5 L 87.64298412879354 -0.5 Z"/><text text-anchor="middle" pointer-events="none" font-size="8px" fill="#000000" x="61.30314037879354" y="3" font-family="sans-serif">VIEWED_BY</text></g><g class="relationship" transform="translate(-12.509731932927696 189.18932969482842) rotate(321.58279828885463)"><path class="outline" fill="#A5ABB6" stroke="none" d="M 25 0.5 L 35.84994945439372 0.5 L 35.84994945439372 -0.5 L 25 -0.5 Z M 88.52963695439372 0.5 L 99.37958640878745 0.5 L 99.37958640878745 3.5 L 106.37958640878745 0 L 99.37958640878745 -3.5 L 99.37958640878745 -0.5 L 88.52963695439372 -0.5 Z"/><text text-anchor="middle" pointer-events="none" font-size="8px" fill="#000000" x="62.18979320439372" y="3" font-family="sans-serif">VIEWED_BY</text></g><g class="relationship" transform="translate(45.37670768090463 229.0973367769488) rotate(290.33710165822265)"><path class="outline" fill="#A5ABB6" stroke="none" d="M 25 0.5 L 34.97284132240581 0.5 L 34.97284132240581 -0.5 L 25 -0.5 Z M 87.65252882240581 0.5 L 97.62537014481163 0.5 L 97.62537014481163 3.5 L 104.62537014481163 0 L 97.62537014481163 -3.5 L 97.62537014481163 -0.5 L 87.65252882240581 -0.5 Z"/><text text-anchor="middle" pointer-events="none" font-size="8px" fill="#000000" x="61.31268507240581" y="3" font-family="sans-serif">VIEWED_BY</text></g></g><g class="layer nodes"><g class="node" transform="translate(115.65791947010482,235.07547986377423)"><circle class="outline" cx="0" cy="0" r="25" fill="#D9C8AE" stroke="#c0a378" stroke-width="2px"/><text text-anchor="middle" pointer-events="none" font-family="sans-serif" dy="1.5625" font-size="25" fill="#2A2C34"/><text text-anchor="middle" pointer-events="none" font-family="sans-serif" dy="1.5625" font-size="25" fill="#2A2C34"/><text text-anchor="middle" pointer-events="none" x="0" y="0" font-size="10px" fill="#2A2C34" font-family="sans-serif"> BUNDLE</text><text text-anchor="middle" pointer-events="none" x="0" y="10" font-size="10px" fill="#2A2C34" font-family="sans-serif"> OF 3 S…</text></g><g class="node" transform="translate(90.4270853968804,107.55228318435154)"><circle class="outline" cx="0" cy="0" r="25" fill="#8DCC93" stroke="#5db665" stroke-width="2px"/><text text-anchor="middle" pointer-events="none" font-family="sans-serif" dy="1.5625" font-size="25" fill="#2A2C34"/><text text-anchor="middle" pointer-events="none" x="0" y="5" font-size="10px" fill="#2A2C34" font-family="sans-serif"> 15301</text></g><g class="node" transform="translate(181.2795608069747,205.35358878690352)"><circle class="outline" cx="0" cy="0" r="25" fill="#D9C8AE" stroke="#c0a378" stroke-width="2px"/><text text-anchor="middle" pointer-events="none" font-family="sans-serif" dy="1.5625" font-size="25" fill="#2A2C34"/><text text-anchor="middle" pointer-events="none" font-family="sans-serif" dy="1.5625" font-size="25" fill="#2A2C34"/><text text-anchor="middle" pointer-events="none" x="0" y="0" font-size="10px" fill="#2A2C34" font-family="sans-serif"> PINK</text><text text-anchor="middle" pointer-events="none" x="0" y="10" font-size="10px" fill="#2A2C34" font-family="sans-serif"> POLKA…</text></g><g class="node" transform="translate(214.46010769302052,147.9979947385694)"><circle class="outline" cx="0" cy="0" r="25" fill="#D9C8AE" stroke="#c0a378" stroke-width="2px"/><text text-anchor="middle" pointer-events="none" font-family="sans-serif" dy="1.5625" font-size="25" fill="#2A2C34"/><text text-anchor="middle" pointer-events="none" font-family="sans-serif" dy="1.5625" font-size="25" fill="#2A2C34"/><text text-anchor="middle" pointer-events="none" x="0" y="0" font-size="10px" fill="#2A2C34" font-family="sans-serif"> RIVIERA</text><text text-anchor="middle" pointer-events="none" x="0" y="10" font-size="10px" fill="#2A2C34" font-family="sans-serif"> NECKL…</text></g><g class="node" transform="translate(218.51825662303597,83.66429684123729)"><circle class="outline" cx="0" cy="0" r="25" fill="#D9C8AE" stroke="#c0a378" stroke-width="2px"/><text text-anchor="middle" pointer-events="none" font-family="sans-serif" dy="1.5625" font-size="25" fill="#2A2C34"/><text text-anchor="middle" pointer-events="none" font-family="sans-serif" dy="1.5625" font-size="25" fill="#2A2C34"/><text text-anchor="middle" pointer-events="none" font-family="sans-serif" dy="1.5625" font-size="25" fill="#2A2C34"/><text text-anchor="middle" pointer-events="none" font-family="sans-serif" dy="1.5625" font-size="25" fill="#2A2C34"/><text text-anchor="middle" pointer-events="none" x="0" y="-10" font-size="10px" fill="#2A2C34" font-family="sans-serif"> TEA</text><text text-anchor="middle" pointer-events="none" x="0" y="0" font-size="10px" fill="#2A2C34" font-family="sans-serif"> TIME</text><text text-anchor="middle" pointer-events="none" x="0" y="10" font-size="10px" fill="#2A2C34" font-family="sans-serif"> PARTY</text><text text-anchor="middle" pointer-events="none" x="0" y="20" font-size="10px" fill="#2A2C34" font-family="sans-serif"> BU…</text></g><g class="node" transform="translate(194.96901408786454,24.72779965504706)"><circle class="outline" cx="0" cy="0" r="25" fill="#D9C8AE" stroke="#c0a378" stroke-width="2px"/><text text-anchor="middle" pointer-events="none" font-family="sans-serif" dy="1.5625" font-size="25" fill="#2A2C34"/><text text-anchor="middle" pointer-events="none" x="0" y="5" font-size="10px" fill="#2A2C34" font-family="sans-serif"> ABSTR…</text></g><g class="node" transform="translate(142.97002398778721,-11.665880875180141)"><circle class="outline" cx="0" cy="0" r="25" fill="#D9C8AE" stroke="#c0a378" stroke-width="2px"/><text text-anchor="middle" pointer-events="none" font-family="sans-serif" dy="1.5625" font-size="25" fill="#2A2C34"/><text text-anchor="middle" pointer-events="none" font-family="sans-serif" dy="1.5625" font-size="25" fill="#2A2C34"/><text text-anchor="middle" pointer-events="none" x="0" y="0" font-size="10px" fill="#2A2C34" font-family="sans-serif"> DROP</text><text text-anchor="middle" pointer-events="none" x="0" y="10" font-size="10px" fill="#2A2C34" font-family="sans-serif"> DIAMA…</text></g><g class="node" transform="translate(79.40477252317001,-22.408320858971386)"><circle class="outline" cx="0" cy="0" r="25" fill="#D9C8AE" stroke="#c0a378" stroke-width="2px"/><text text-anchor="middle" pointer-events="none" font-family="sans-serif" dy="1.5625" font-size="25" fill="#2A2C34"/><text text-anchor="middle" pointer-events="none" font-family="sans-serif" dy="1.5625" font-size="25" fill="#2A2C34"/><text text-anchor="middle" pointer-events="none" font-family="sans-serif" dy="1.5625" font-size="25" fill="#2A2C34"/><text text-anchor="middle" pointer-events="none" font-family="sans-serif" dy="1.5625" font-size="25" fill="#2A2C34"/><text text-anchor="middle" pointer-events="none" x="0" y="-10" font-size="10px" fill="#2A2C34" font-family="sans-serif"> BABY</text><text text-anchor="middle" pointer-events="none" x="0" y="0" font-size="10px" fill="#2A2C34" font-family="sans-serif"> MOUSE</text><text text-anchor="middle" pointer-events="none" x="0" y="10" font-size="10px" fill="#2A2C34" font-family="sans-serif"> RED</text><text text-anchor="middle" pointer-events="none" x="0" y="20" font-size="10px" fill="#2A2C34" font-family="sans-serif"> GIN…</text></g><g class="node" transform="translate(15.980742860447089,-3.200085258216888)"><circle class="outline" cx="0" cy="0" r="25" fill="#D9C8AE" stroke="#c0a378" stroke-width="2px"/><text text-anchor="middle" pointer-events="none" font-family="sans-serif" dy="1.5625" font-size="25" fill="#2A2C34"/><text text-anchor="middle" pointer-events="none" font-family="sans-serif" dy="1.5625" font-size="25" fill="#2A2C34"/><text text-anchor="middle" pointer-events="none" font-family="sans-serif" dy="1.5625" font-size="25" fill="#2A2C34"/><text text-anchor="middle" pointer-events="none" x="0" y="-5" font-size="10px" fill="#2A2C34" font-family="sans-serif"> WHITE</text><text text-anchor="middle" pointer-events="none" x="0" y="5" font-size="10px" fill="#2A2C34" font-family="sans-serif"> SOAP</text><text text-anchor="middle" pointer-events="none" x="0" y="15" font-size="10px" fill="#2A2C34" font-family="sans-serif"> RACK</text></g><g class="node" transform="translate(-27.946914512705877,53.91703278740539)"><circle class="outline" cx="0" cy="0" r="25" fill="#D9C8AE" stroke="#c0a378" stroke-width="2px"/><text text-anchor="middle" pointer-events="none" font-family="sans-serif" dy="1.5625" font-size="25" fill="#2A2C34"/><text text-anchor="middle" pointer-events="none" x="0" y="5" font-size="10px" fill="#2A2C34" font-family="sans-serif"> DOORM…</text></g><g class="node" transform="translate(-38.16653181554036,123.72230557270619)"><circle class="outline" cx="0" cy="0" r="25" fill="#D9C8AE" stroke="#c0a378" stroke-width="2px"/><text text-anchor="middle" pointer-events="none" font-family="sans-serif" dy="1.5625" font-size="25" fill="#2A2C34"/><text text-anchor="middle" pointer-events="none" x="0" y="5" font-size="10px" fill="#2A2C34" font-family="sans-serif"> EMBRO…</text></g><g class="node" transform="translate(-12.509731932927696,189.18932969482842)"><circle class="outline" cx="0" cy="0" r="25" fill="#D9C8AE" stroke="#c0a378" stroke-width="2px"/><text text-anchor="middle" pointer-events="none" font-family="sans-serif" dy="1.5625" font-size="25" fill="#2A2C34"/><text text-anchor="middle" pointer-events="none" x="0" y="5" font-size="10px" fill="#2A2C34" font-family="sans-serif"> PHARM…</text></g><g class="node" transform="translate(45.37670768090463,229.0973367769488)"><circle class="outline" cx="0" cy="0" r="25" fill="#D9C8AE" stroke="#c0a378" stroke-width="2px"/><text text-anchor="middle" pointer-events="none" font-family="sans-serif" dy="1.5625" font-size="25" fill="#2A2C34"/><text text-anchor="middle" pointer-events="none" font-family="sans-serif" dy="1.5625" font-size="25" fill="#2A2C34"/><text text-anchor="middle" pointer-events="none" x="0" y="0" font-size="10px" fill="#2A2C34" font-family="sans-serif"> EASTER</text><text text-anchor="middle" pointer-events="none" x="0" y="10" font-size="10px" fill="#2A2C34" font-family="sans-serif"> TIN CH…</text></g></g></svg>